<?xml version="1.0" encoding="UTF-8"?>
<svg id="Layer_3" data-name="Layer 3" xmlns="http://www.w3.org/2000/svg" viewBox="0 0 256 256">
  <defs>
    <style>
      .cls-1 {
        fill: #f7f8fd;
      }

      .cls-2 {
        fill: #bbc7e3;
      }

      .cls-3 {
        fill: #f9f8fe;
      }

      .cls-4 {
        fill: #b9c3dd;
      }

      .cls-5 {
        fill: #343f60;
      }

      .cls-6 {
        fill: #475782;
      }

      .cls-7 {
        fill: #465074;
      }

      .cls-8 {
        fill: #49587e;
      }

      .cls-9 {
        fill: #f8f8fc;
      }

      .cls-10 {
        fill: #f8f9fc;
      }

      .cls-11 {
        fill: #f2f3fa;
      }

      .cls-12 {
        fill: #fcfafb;
      }

      .cls-13 {
        fill: #ffcbcf;
      }

      .cls-14 {
        fill: #eff1fc;
      }

      .cls-15 {
        fill: #425c98;
      }

      .cls-16 {
        fill: #f9fafd;
      }

      .cls-17 {
        fill: #ccd4eb;
      }

      .cls-18 {
        fill: #e5e6f5;
      }

      .cls-19 {
        fill: #6a7ea6;
      }

      .cls-20 {
        fill: #212d4d;
      }

      .cls-21 {
        fill: #43567d;
      }

      .cls-22 {
        fill: #324f95;
      }

      .cls-23 {
        fill: #dce1ed;
      }

      .cls-24 {
        fill: #8295c2;
      }

      .cls-25 {
        fill: #dddfe5;
      }

      .cls-26 {
        fill: #687ea5;
      }

      .cls-27 {
        fill: #e5e6ed;
      }

      .cls-28 {
        fill: #d6e0f3;
      }

      .cls-29 {
        fill: #f6f6fc;
      }

      .cls-30 {
        fill: #455d98;
      }

      .cls-31 {
        fill: #fff;
      }

      .cls-32 {
        fill: #3b5592;
      }

      .cls-33 {
        fill: #4b5a80;
      }

      .cls-34 {
        fill: #e4e7f1;
      }

      .cls-35 {
        fill: #3e4970;
      }

      .cls-36 {
        fill: #dce4f5;
      }

      .cls-37 {
        fill: #253e75;
      }

      .cls-38 {
        fill: #606f9b;
      }

      .cls-39 {
        fill: #dbdfed;
      }

      .cls-40 {
        fill: #7581a9;
      }

      .cls-41 {
        fill: #505978;
      }

      .cls-42 {
        fill: #3c527e;
      }

      .cls-43 {
        fill: #e7edf8;
      }

      .cls-44 {
        fill: #313e61;
      }

      .cls-45 {
        fill: #606886;
      }

      .cls-46 {
        fill: #556b9f;
      }

      .cls-47 {
        fill: #e9eff9;
      }

      .cls-48 {
        fill: #e2e3eb;
      }

      .cls-49 {
        fill: #ffc1c7;
      }

      .cls-50 {
        fill: #e5e7ed;
      }

      .cls-51 {
        fill: #e8e8ef;
      }

      .cls-52 {
        fill: #b0bcd6;
      }

      .cls-53 {
        fill: #222c4d;
      }

      .cls-54 {
        fill: #4c5f88;
      }

      .cls-55 {
        fill: #ffc1c6;
      }

      .cls-56 {
        fill: #d6dded;
      }

      .cls-57 {
        fill: #fbfafd;
      }

      .cls-58 {
        fill: #ebeff9;
      }

      .cls-59 {
        fill: #4b5d97;
      }

      .cls-60 {
        fill: #4b587e;
      }

      .cls-61 {
        fill: #808ab2;
      }

      .cls-62 {
        fill: #455783;
      }

      .cls-63 {
        fill: #bcc2d7;
      }

      .cls-64 {
        fill: #e1e7f6;
      }

      .cls-65 {
        fill: #465882;
      }

      .cls-66 {
        fill: #a5aed2;
      }

      .cls-67 {
        fill: #f7f7fb;
      }

      .cls-68 {
        fill: #dae2f2;
      }

      .cls-69 {
        fill: #e0e4f1;
      }

      .cls-70 {
        fill: #455b7f;
      }

      .cls-71 {
        fill: #6c82a9;
      }

      .cls-72 {
        fill: #e0e5f3;
      }

      .cls-73 {
        fill: #495d8a;
      }

      .cls-74 {
        fill: #a3aaca;
      }

      .cls-75 {
        fill: #f7f9fd;
      }

      .cls-76 {
        fill: #dde3f2;
      }

      .cls-77 {
        fill: #495880;
      }

      .cls-78 {
        fill: #f7f6ff;
      }

      .cls-79 {
        fill: #f9f9fc;
      }

      .cls-80 {
        fill: #42567f;
      }

      .cls-81 {
        fill: #dfe1e8;
      }

      .cls-82 {
        fill: #3f5380;
      }

      .cls-83 {
        fill: #dcdfe5;
      }

      .cls-84 {
        fill: #dbe1f4;
      }

      .cls-85 {
        fill: #46587f;
      }

      .cls-86 {
        fill: #dfe3f4;
      }

      .cls-87 {
        fill: #b2bfd3;
      }

      .cls-88 {
        fill: #cfd1dc;
      }

      .cls-89 {
        fill: #364c7c;
      }

      .cls-90 {
        fill: #475b87;
      }

      .cls-91 {
        fill: #c2cce8;
      }

      .cls-92 {
        fill: #2a447c;
      }

      .cls-93 {
        fill: #3c528a;
      }

      .cls-94 {
        fill: #b4c1e0;
      }

      .cls-95 {
        fill: #445074;
      }

      .cls-96 {
        fill: #d2daee;
      }

      .cls-97 {
        fill: #596d9b;
      }

      .cls-98 {
        fill: #fbfcfe;
      }

      .cls-99 {
        fill: #ced7ed;
      }

      .cls-100 {
        fill: #485a7e;
      }

      .cls-101 {
        fill: #cad5ed;
      }

      .cls-102 {
        fill: #fafafc;
      }

      .cls-103 {
        fill: #fcfcfe;
      }

      .cls-104 {
        fill: #dae0f1;
      }

      .cls-105 {
        fill: #eaf0f9;
      }

      .cls-106 {
        fill: #eff2fb;
      }

      .cls-107 {
        fill: #687190;
      }

      .cls-108 {
        fill: #d2dbef;
      }

      .cls-109 {
        fill: #fb7b96;
      }

      .cls-110 {
        fill: #485880;
      }

      .cls-111 {
        fill: #e7e9f8;
      }

      .cls-112 {
        fill: #bec1d1;
      }

      .cls-113 {
        fill: #dce2f4;
      }

      .cls-114 {
        fill: #3b548e;
      }

      .cls-115 {
        fill: #485980;
      }

      .cls-116 {
        fill: #f1eff5;
      }

      .cls-117 {
        fill: #e6ebf7;
      }

      .cls-118 {
        fill: #f5f5fb;
      }

      .cls-119 {
        fill: #dcdfe4;
      }

      .cls-120 {
        fill: #495270;
      }

      .cls-121 {
        fill: #3d548d;
      }

      .cls-122 {
        fill: #e4e5ec;
      }

      .cls-123 {
        fill: #f1f0f1;
      }

      .cls-124 {
        fill: #19284b;
      }

      .cls-125 {
        fill: #dbdee3;
      }

      .cls-126 {
        fill: #939ebf;
      }

      .cls-127 {
        fill: #344471;
      }

      .cls-128 {
        fill: #e2e6f5;
      }

      .cls-129 {
        fill: #485981;
      }

      .cls-130 {
        fill: #e4e8f6;
      }

      .cls-131 {
        fill: #425179;
      }

      .cls-132 {
        fill: #f7f7fc;
      }

      .cls-133 {
        fill: #fdfefe;
      }

      .cls-134 {
        fill: #4a5983;
      }

      .cls-135 {
        fill: #fdfdfd;
      }

      .cls-136 {
        fill: #3e4f7a;
      }

      .cls-137 {
        fill: #dfe1ef;
      }
    </style>
  </defs>
  <g id="Generative_Object" data-name="Generative Object">
    <g>
      <path class="cls-88" d="M143.13,153.89l25.12.22c-.25.34.17.74.17,1.17l-.05,8.37-.14,22.16c1.05.1,1.93.07,2.95-.04l-.03-21.95c0-.33-1-.52-1.28-.36l.16-9.14c-.03-.07.07-.37.25-.37h20.24s-.04,27.22-.04,27.22c-.11-.03-.18.04-.21.1-.05.11-.06.21-.01.3l-4.31,4.51,4.51.71c.11,2.42-.05,4.84.19,7.23.08.77-.49,1.73.14,2.55l6.43-.09c.19-1.07.1-2.09.11-3.06l.04-5.61c4,.72,11.09,2.1,14.29,4.84,1.13.96,1.28,2.41.17,3.48-1.31,1.26-2.97,2.03-4.68,2.64-14.57,5.23-47.01,6.87-63.07,7.2-11.29.23-22.48.27-33.82-.14-16.9-.62-37.72-1.87-54.07-5.3-2.75-.58-12.89-2.76-12.8-6.23.1-3.73,13.03-6.22,15.95-6.55,0,1.56.04,4.23.09,5.66,0,.14-.15.53.18.53l6.56-.02.14-7.34c12.04-1.61,24.21-2.36,36.34-2.91.42,3.63,2.17,7.12,4.37,9.96-.15.72-.45,1.48.05,2.12,1.33,1.72,5.79.48,9.12,1.12.75.14,1.43,1.48,2.48.78-.19-.71-.39-1.64-.14-2.49l.45,2.75c.7.01,1.9.32,2.29-.23.53-.74.05-1.8.39-2.51.2.88.09,1.75-.04,2.53.8.22,1.17-.68,1.68-.76,2.36-.1,4.68-.13,7.01.02.55.18,1.04.98,1.77.74-.14-.89-.47-1.83.12-2.55l.12,2.58c.64.22,1.95.56,2.49,0,.6-.63.23-1.75.39-2.52.27,0,.34.28.38.45-.13-.45-.24,2.02-.47,2,.99.61,1.57-.79,2.26-.81l7.95-.23c1.08-.03,1.98-.68,2.15-1.87,7.5-1.51,11.33-7.89,12.75-14.98,1.21-6.04,1.48-12.15.85-18.24-.14-1.32-.51-2.6-1.34-3.54s-2.12-1.35-3.24-.81c-.87.42-1.74,1.52-1.61,2.79.58,5.66.67,11.26-.36,16.85-.47,2.52-1.1,4.96-2.61,7.18.95-10.66-4.54-20.67-9.99-29.11.32-.47.87-.72,1.18-1.02Z"/>
      <path class="cls-125" d="M205.07,154.01c0,1.06-.63,2.71-1.03,3.76l-.94,2.44c.16-.42-1.14,2.83-.95,2.44l-.47.97c-.61,1.27-3.24,7.16-4.3,7.41l-.03-17.06,7.71.04Z"/>
      <g>
        <g>
          <path class="cls-45" d="M59.44,193.44c-.06-1.43-.1-4.1-.09-5.66l.03-10.67.05-20.26c0-.83.49-1.87.11-2.86h6.31c.29.38.02.77.02,1.19v37.23c.01.51.23.84-.08,1.06s-1.86,0-2.06,0c-1.52.08-2.91.28-4.3-.03Z"/>
          <path class="cls-41" d="M88.46,139.93c-.47.59-.14,5.19-.1,6.68l16.03.03c.21-.33.08-.89.4-1.15.76-.09,1.52-.17,2.18-.14,1.68.08,3.36-.13,5.06.1l-4.9.21c0,.7.28.99.11,1.52-1.78.12-3.39.47-4.71,1.3,3.47-.92,6.72-1.77,10.08-1.73-1.93.43-3.29.33-5.07.85.56,2.45,1.92,4.48,3.49,6.31l-44.8.07.09,32.63-.14,7.34-6.56.02c-.33,0-.17-.38-.18-.53,1.4.31,2.79.11,4.3.03.2-.01,1.77.2,2.06,0s.09-.55.09-1.06v-37.23c-.01-.43.25-.82-.04-1.2h-6.31c.38,1.01-.11,2.04-.11,2.88.04-.9.02-1.82-.07-2.86l-7.31-.04c-1.38,0-2.27-1.21-2.25-2.54l.05-2.92c.02-1.18,1.09-1.82,2.22-1.83l23.18-.14c.15.04.31-.36.33,0,.17.28.58,0,.77.04.91.23,1.83.03,2.92.1-.06-1.88.48-3.9-.88-4.98.3-.45.38-1.31,1.02-1.68l9.05-.06Z"/>
        </g>
        <g>
          <path class="cls-120" d="M206.65,147.11c.51.39.79,1.02.79,1.75v2.76c-.01,1.27-1.1,2.4-2.37,2.39l-7.71-.04.03,17.06v16.81s-.05,5.61-.05,5.61c-.06.07-.02.23-.07.51l-6.61.09c-.24-2.39-.08-4.82-.19-7.23-.08-1.73.2-3.5.02-5.24-.01-.13,0-.26,0-.39l.04-27.22h-20.24c-.18,0-.28.3-.25.37-.59-.67-1.25-.21-1.78-.21l-25.12-.22c1.54-1.93,3.05-3.98,3.59-6.53l-4.93-.73c.47-.28.93-.06,1.34-.02,2.39.28,4.65.8,7.07,1.53-.86-.85-2-.68-2.97-1.09-.03-.1-.01-.19.03-.25.06-.11.22-.09.38-.09l3.28.02c.06-.23,0-.43.19-.4l.14.32h53.6c.8-.01,1.31.07,1.81.45Z"/>
          <path class="cls-107" d="M168.37,163.66c.49.07,1.1.04,1.5-.19.28-.16,1.28.03,1.28.36l.03,21.95c-1.03.11-1.9.14-2.95.04l.14-22.16Z"/>
          <path class="cls-112" d="M190.65,194.04l6.61-.09c.05-.28,0-.44.07-.51,0,.97.08,1.99-.11,3.06l-6.43.09c-.63-.82-.06-1.78-.14-2.55Z"/>
          <path class="cls-7" d="M170.04,154.33l-.16,9.14c-.4.23-1.02.26-1.5.19l.05-8.37c0-.43-.42-.83-.17-1.17.54,0,1.2-.46,1.78.21Z"/>
          <path class="cls-31" d="M190.49,181.57c-.07,0-.15,0-.22.01-.05-.09-.04-.19.01-.3.03-.06.1-.13.21-.1,0,.13-.01.26,0,.39Z"/>
        </g>
      </g>
    </g>
    <g>
      <path class="cls-119" d="M206.65,147.11c-.5-.39-1.01-.46-1.81-.46h-53.6s-.14-.31-.14-.31c-.02-.68.09-1.39-.18-2.19-.77-.11-1.48-.03-2.16,0-.54-1.15-.5-2.45-.81-4.05l30.24-.07c1.3,0,2.1-1.23,2.1-2.48v-51.9c0-1.54-.99-2.45-2.52-2.45h-73.69c-1.38.01-2.21,1.21-2.22,2.4l-.03,7.74-29.33.04c-1.12,0-1.86,1.15-1.86,2.19v41.98c0,1.48,1.05,2.46,2.43,2.47l4.98.04c-1.34,2.57-1.96,3.8-2.8,6.49l-23.18.14c-1.13,0-2.2.65-2.22,1.83l-.05,2.92c-.02,1.33.88,2.53,2.25,2.54l7.31.04c.08,1.05.11,1.96.07,2.86l-.05,20.26c-.22-.07-.15-.5-.63-.36-.95-1.55-1.92-3.08-2.88-4.73l-.59-1.02c-1.46-2.51-4.18-8.59-5.07-11.25l-.6-1.82c-.26-.78-.5-1.49-.76-2.31l-.67-2.12c.03.09-2.47-9.63-1.56-7.63-.04-.08-.18-.1-.4-.28.52-.47-.07-.79-.12-1.16-.04-.28-.59-4.48-.32-3.92-.67-1.41-.38-3.4-.55-4.84-.32-2.73-.01-5.27-.15-8.03,0-.11.5-.24.4-.34-.51-.5.1-4.32.06-3.68l.06-1.22.22-1.95c.04-.34.26-.96.27-1.31,0-.51-.12-1.09.34-1.4.09-.06-.33-.42-.1-.53.09-.04.31-.05.22-.25-.31-.69.16-1.33.28-2.01l.22-1.24c.09-.49-.03-.85.33-1.27.21-.24-.15-.88.24-1.1.25-.15.07-.23.03-.34-.08-.2.18-.22.29-.36.07-.08-.17-.27-.14-.41.03-.16.15-.24.34-.35-.49.29,1.77-5.81,1.8-5.91l.48-1.47,2.38-5.58.88-1.75.4-.69c-.33.57,1.55-3.09,1.34-2.51.2-.54.56-.97.89-1.53,4.05-6.85,8.89-12.97,14.72-18.38,3.8-3.53,7.71-6.69,12.13-9.45l.96-.6,1.39-.83c4.84-2.89,9.93-5.23,15.37-7.05.82-.27,4.82-1.54,5.68-1.72-.09.02,8.35-1.77,7.35-1.44.78-.26,1.4-.27,2.2-.37l3.85-.48c1.85-.23,9.6-.26,9.59-.25.33-.08,3.43.29,4.07.32,1.44.06,2.69.12,4.14.48.45.11,1.01-.09,1.51.18.42.23.9.16,1.38.19.65.04,1.27.29,1.94.4,7.88,1.27,19.03,5.49,25.89,9.78l4.61,2.88c-.16-.1,2.92,2.11,3.15,2.28l1.58,1.23c3.1,2.41,4.06,3.44,6.85,6.06.72.67,1.42,1.26,1.98,2.01,1,1.32,2.31,2.25,3.17,3.59.4.62.96,1.07,1.43,1.7,3.37,4.45,5.86,8.03,8.27,12.77l.45.88c.54,1.06,1.07,2.1,1.57,3.28l.76,1.8c.14.34.7,1.45.46,1.59.52-.28,1.3,3.61,1.54,3.85.44.44.2,1.1.46,1.64.07.14.33.13.3.35-.24,2.14.31-.62.07,1.02.07.1.34.15.33.34,0,.12-.25.35-.16.4.23.14.44.36.14.62.62.1.3.49.31.89,0,.32.55.74.3,1.36-.05.12.23.14.3.22.13.14-.08.51-.07.62.14.22.25.28.3.37.06.11-.15.36-.07.41.26.19.5.87.09,1.17.3.2.32.28.37.37.05.1-.15.39-.05.43.63.31-.12,1.39.5,2.19.25.32-.01,1.11.13,1.44.17.4,0,1.03.1,1.38.57.39.16,1.01.26,1.46s.47.99.12,1.6c-.03.05.18,2.41.35,1.42-.41,2.41.06,1.21.07,2.01.04,2.24.3,4.46-.11,6.52-.15.73-.1,1.35-.08,2.04,0,.2-.42,3.09-.07,2.65l-.35.44c.5-.63-.36,3.01-.13,2.78-.43.43-.29.76-.11,1.46.05.2-.33.24-.35.47-.02.2.14.36.19.5.06.16-.45.33-.37.47.28.5-.02.99-.08,1.32l-.31,1.63Z"/>
      <path class="cls-25" d="M111.03,153.9c.34.4.92.65,1.24,1.17-5.36,8.03-10.73,18.92-9.61,28.62-12.14.55-24.31,1.3-36.34,2.91l-.09-32.63,44.8-.07Z"/>
      <path class="cls-83" d="M107.52,140.11c-.42,1.72-.35,3.5-.54,5.24-.66-.03-1.42.04-2.18.14-.32.25-.19.82-.4,1.15l-16.03-.03c-.04-1.49-.37-6.09.1-6.68l14.93.08,4.13.1Z"/>
    </g>
    <g>
      <path class="cls-44" d="M151.11,146.33c-.2-.03-.13.18-.19.4l-3.28-.02c-.16,0-.32-.01-.38.09-.04.06-.05.15-.03.25-.62-.26-.07-.43-.11-1.65l-5.15-.15c1.73-.24,3.45,0,5.16-.12.36-.03.83-.04,1.24.11.3.12.51-.15.79-.12.2.02.4-.12.42-.27.03-.19,0-.43-.11-.43l-.52.02c-.12.12-.14.03-.25-.07s-.15-.25.05-.26c.68-.02,1.39-.1,2.16,0,.28.8.16,1.51.18,2.19Z"/>
      <g>
        <g>
          <path class="cls-95" d="M108.9,127.63c-.43-.36-2.59-.16-3.51-.19-.19-.51.03-.94.03-1.36l3.52-.02c.06.6-.01,1.08-.04,1.57Z"/>
          <g>
            <g>
              <path class="cls-39" d="M176.95,91.43c-.11-.05-.19.12-.37.12l-71.2.05c0-1.52-.14-3.09.08-4.65h71.51c.1,1.59-.02,3.06-.01,4.48Z"/>
              <path class="cls-127" d="M111.88,90.01c-.28.5-.68.7-1.09.63-.37-.07-.66-.35-.8-.74-.13-.35,0-.8.47-1.02.4-.19.8-.13,1.07,0,.37.19.63.66.36,1.13Z"/>
              <path class="cls-6" d="M107.35,88.82c.52-.26,1.04,0,1.24.43s.02,1.03-.44,1.29c-.4.23-.92.04-1.17-.38s-.22-1.06.37-1.35Z"/>
            </g>
            <g>
              <path class="cls-133" d="M176.95,91.43l.06,34.61h-31.25c.11,3.46.24,6.78-.41,10.19,1.53,2.77,2.22,5.86,1.78,8.9-1.71.12-3.43-.12-5.16.12l5.15.15c.04,1.22-.51,1.39.11,1.65.97.41,2.11.24,2.97,1.09-2.42-.72-4.68-1.25-7.07-1.53-.41-.05-.88-.26-1.34.02l4.93.73c-.54,2.55-2.05,4.6-3.59,6.53-.31.3-.86.55-1.18,1.02,5.45,8.43,10.94,18.44,9.99,29.11,1.51-2.22,2.14-4.66,2.61-7.18,1.03-5.58.94-11.19.36-16.85-.13-1.27.74-2.37,1.61-2.79,1.12-.54,2.38-.17,3.24.81s1.2,2.23,1.34,3.54c.63,6.1.37,12.21-.85,18.24-1.43,7.1-5.26,13.48-12.75,14.98-.17,1.19-1.08,1.84-2.15,1.87l-7.95.23c-.68.02-1.27,1.42-2.26.81.23.02.33-2.45.47-2-.05-.17-.11-.45-.38-.45-.16.77.21,1.89-.39,2.52-.54.56-1.85.21-2.49,0l-.12-2.58c-.6.73-.26,1.66-.12,2.55-.73.24-1.22-.56-1.77-.74-2.33-.15-4.65-.12-7.01-.02-.51.08-.88.97-1.68.76.13-.77.23-1.65.04-2.53-.33.72.14,1.78-.39,2.51-.39.55-1.59.24-2.29.23l-.45-2.75c-.25.85-.05,1.78.14,2.49-1.05.7-1.72-.63-2.48-.78-3.33-.63-7.79.6-9.12-1.12-.5-.64-.2-1.4-.05-2.12-2.21-2.84-3.95-6.33-4.37-9.96-1.12-9.7,4.25-20.59,9.61-28.62-.32-.52-.9-.78-1.24-1.17-1.57-1.83-2.94-3.86-3.49-6.31,1.78-.52,3.15-.42,5.07-.85-3.37-.04-6.61.81-10.08,1.73,1.33-.83,2.93-1.18,4.71-1.3.17-.53-.12-.82-.11-1.52l4.9-.21c-1.7-.23-3.38-.01-5.06-.1.19-1.75.13-3.53.54-5.24.33-1.35,1.07-2.58,1.58-3.86-.52-2.95-.37-5.8-.2-8.62.03-.49.1-.97.04-1.57l-3.52.02-.03-34.47,71.2-.05c.19,0,.26-.17.37-.12Z"/>
              <g>
                <g>
                  <g>
                    <path class="cls-49" d="M118.13,128.74c-2.63,1.27-4.87,2.6-6.94,4.77-.66-3.34-.34-6.66.17-9.94.08-.5.69-.59,1.09-.42,2.12,1.56,3.99,3.26,5.68,5.59Z"/>
                    <path class="cls-55" d="M143.45,133.51c-2.06-1.94-4.07-3.52-6.72-4.67.79-1.23,5.22-5.73,6.33-5.63,1.22.12.9,8.55.39,10.29Z"/>
                    <path class="cls-13" d="M141.26,145.84c.16,1.44-1.21,2.31-2.26,2.43-1.24.15-2.5-.52-2.86-1.76-.31-1.08.37-2.04,1.39-2.48,1.44-.62,3.53,0,3.73,1.81Z"/>
                    <path class="cls-13" d="M118.34,146.23c-.09,1.34-1.37,1.99-2.34,2.06-1.13.08-2.3-.5-2.66-1.6-.44-1.32.49-2.43,1.8-2.75,1.51-.38,3.33.48,3.21,2.3Z"/>
                    <path class="cls-124" d="M127.62,143.97c.02.42-.08.93.18,1.38.39.65.97,1.01,1.63.89,1.45-.27,1.19-1.89,1.74-1.45.57.46-.33,1.88-1.55,2.1-.93.16-1.79-.25-2.35-1.15-.6.75-1.34,1.31-2.33,1.18-.83-.11-1.65-.75-1.86-1.72-.05-.23.25-.43.37-.43.41-.02.33,1.2,1.4,1.45.58.14,1.09-.02,1.52-.41.49-.43.52-1.07.58-1.63.02-.18.09-.36.33-.34.09,0,.2.08.33.13Z"/>
                    <path class="cls-20" d="M139.02,142.69c-.65.44-.79-1.34-2.37-1.34-1.7,0-1.59,1.89-2.49,1.46-.79-.38.44-2.52,2.31-2.61,1.23-.06,2.33.55,2.78,1.71.1.27.07.57-.23.77Z"/>
                    <path class="cls-53" d="M120.1,142.89c-.68.17-.82-1.49-2.34-1.53s-1.61,1.78-2.34,1.38c-.19-.1-.41-.39-.3-.7.44-1.18,1.53-1.83,2.65-1.82,1.21.01,2.35.75,2.71,2.01.1.34-.19.61-.38.66Z"/>
                    <path class="cls-109" d="M127.62,143.97c-.13-.05-.24-.12-.33-.13-.23-.02-.31.16-.33.34l-1.33-1.37c-.15-.16-.18-.38-.2-.49-.12-.99,3.41-.75,3.5-.27.39.78-.81,1.47-1.32,1.91Z"/>
                  </g>
                  <g>
                    <path class="cls-51" d="M115.94,196.03c-1.07-.73-.97-2.2-1.59-3.22-.94-3.68-2.22-7.29-2.34-11.24l3.93,14.46Z"/>
                    <path class="cls-27" d="M137.77,195.25c.02-1.65.48-3.08.88-4.59l3.14-11.86c-.8,5.7-2.37,11.1-4.02,16.45Z"/>
                    <path class="cls-50" d="M111.52,179.23c-.08-.62-.49-1.21-.18-1.97.06.61.49,1.06.18,1.97Z"/>
                    <path class="cls-48" d="M111.91,181.56c-.08-.62-.49-1.21-.18-1.97.06.61.49,1.06.18,1.97Z"/>
                    <path class="cls-122" d="M141.88,178.68c-.24-.69.13-1.13.21-1.8.28.6.04,1.2-.21,1.8Z"/>
                  </g>
                </g>
                <g>
                  <path class="cls-35" d="M133.97,127.99c-4.27-1.24-8.64-1.29-13.02-.08l-1.72-1.83,16.57-.02-1.83,1.93Z"/>
                  <g>
                    <path class="cls-69" d="M124.31,112.1l3.29.55c1.54.26,3.02.95,4.65,1.14.66.07,1.28.37,1.67.55-.49-.23,6.63-2.02,6.32-1.89-.48.2,2.74-.3,2.72-.19,0-1.19.15-2.27-.07-3.37l-5.36-.83c.05-1.03-.15-1.99.06-2.94.12-.55.37-1.48-.35-1.74l-1.7-.6c-.52-.18-1.16.23-1.72.14l-.09,4.25c-.12.08-.45-.14-.5-.05-1.38-.41-2.83-.66-4.28-.91s-2.81-.71-4.26-.83c.04-.09,0-.19-.03-.25-.07-.1-.34-.28-.39-.14l-.06-11.89h34.55s0,31.91,0,31.91l-13.03.08-.58-4.08c-.11-.37-.3-.66-.52-.81-1.12-.75-6.13,3.71-7.32,4.65-.36.48-.71.25-1.14.25l-11.95-.07.11-12.93Z"/>
                    <path class="cls-23" d="M173.9,94.27c-4.34.72-1.36-.91-3.15-.07-.71.33-1.56.07-2.34.08l-3.63.06c-.19,0-.38.04-.48-.16-.06-.11.09-.28.33-.38,1.28-.17,2.54.01,3.8,0l5.51-.05c.23,0,.36.18.34.3-.03.15-.2.18-.37.21Z"/>
                    <path class="cls-87" d="M163.68,94.27c-3.23.2-1.78-.57-1.5-.39.44.29,1.03-.31,1.5.39Z"/>
                    <path class="cls-37" d="M166.69,109.21c.36-.13-1.27.81-1.35.2-.03-.24.12-.55.42-.43.28.11.46.26.94.23Z"/>
                    <g>
                      <path class="cls-92" d="M114.55,107c-.58.18-.47.92-.19,1.36-.22-.01-.24.2,0,.19-.27.26-.12.51-.13.81,0,.33-.27,1.08.3,1.11.91.06,1.73-.17,2.53-.04.12.02.17.05.23.07.09.03.17-.1.18-.19.31.34.6.01.98,0,.61-.01,1.27.42,1.84.55.28-.17.56.01.49.29l-1.74-.32c-1.66-.3-3.34,0-5.07-.18v-3.8c.31,0,.4-.2.58-.23v.39Z"/>
                      <path class="cls-97" d="M121.29,111.02l6.31,1.43c0,.07,0,.14.01.2l-3.29-.55c-1.11-.19-2.2-.68-3.34-.82-.04-.1.06-.13.1-.2.09-.19.09-.09.22-.07Z"/>
                      <path class="cls-59" d="M128.96,106.22c0,.07.01.18,0,.24l-4.3-.84c0-.08.02-.16.05-.23,1.44.12,2.83.59,4.26.83Z"/>
                      <path class="cls-64" d="M140.21,111.02c.77,0,1.63-.13,2.42.04.27.06.19.85-.04.95-.18.08-2.69.19-2.33.25l-2.72.54c.02-.64-.09-1.16.06-1.84.94.27,1.79.07,2.62.07Z"/>
                      <path class="cls-130" d="M122.92,110.91c.8.1,1.65.2,2.48.21l3.31.03c.06.53.14,1.04-.03,1.42-.06.13-.57.11-.63-.03-.07-.17-.14-.37-.35-.29-.07.03-.13.09-.11.2l-6.31-1.43c-.14-.09-.01-.14.03-.23.55-.22,1.03.04,1.6.12Z"/>
                      <path class="cls-56" d="M116.87,107.2c.13.7-.29,1.39.02,2.15.1.26-.25.42-.11.56.09.09.16.29.3.23v.3c-.81-.13-1.64.1-2.54.04-.58-.04-.31-.78-.3-1.11.26-.01.51.19.61.5.28.16.25-.05.38-.35.16.2.21.38.41.39s.58.1.64-.17c.08-.41.04-.74,0-1.04-.72,0-1.3-.21-1.91-.14-.24,0-.22-.21,0-.19.64-.06,1.3.15,1.99-.14-.19-.49-.31-.88-.09-1.21.03-.22.25-.31.43-.12.07.07.11.18.18.3Z"/>
                      <path class="cls-67" d="M116.26,107.02c-.22.33-.11.72.09,1.21-.69.29-1.35.08-1.99.14-.28-.44-.39-1.19.19-1.36.82.15.46-.59,1.71.01Z"/>
                      <g>
                        <path class="cls-24" d="M122.13,105.04c-.06.24-.02.78.37.74.66-.06,1.17.17,1.73,0-.09-.45-.43-.34-.51-.52,0-.07-.01-.14,0-.21.23.03.46.22.57-.05.06-.14.33.04.39.14.04.06.07.15.03.25-.03.08-.04.15-.05.23-.12.01-.24.02-.26.1-.02.09.05.34.26.39.44.1.74-.09,1.09.05,1.01.43,2.11.53,3.17.63.06-.09.03-.28.04-.34.02-.06,0-.17,0-.24,1.45.25,2.9.49,4.28.91-.08.21.14.21.36.35.24.26-.2.69.22.92.11-.37.31-.94.63-.78.18.09.63.09.45.47.27-.63.46.07.72.1.12,0,.11.21.24.36.14-.23.36-.17.47.02.05.09-.38.28,0,.38-.13.12-.05.19.04.3.12.13.34.12.66.06.22-.04-.03-.21-.1-.29-.18-.2-.43-.05-.61-.07.11-.09-.03-.32.15-.39.18.15.37.24.52.21.14-.03.33-.26.17-.38.18.07.22-.11.31-.19.06-.05.2.03.22.12-.22.04-.23.4-.15.54.02.04,4.35.45,5.15.66.13.28.02.56-.01.85-.64.2-2.27-.81-2.04.15.02.22-.21.26-.22.04.41-.66-2.69-.97-2.87-.66-.07.12-.01.34.17.42.46.2.98-.25,1.22-.07.37.27.93.38,1.26.48-.19.08-.03.19.01.31-.83,0-1.68.2-2.62-.07-.14.68-.04,1.2-.06,1.84l2.72-.54v.19c.3-.13-6.82,1.66-6.32,1.89-.39-.18-1.01-.48-1.67-.55-1.63-.18-3.11-.88-4.65-1.14-.01-.07-.02-.13-.01-.2-.03-.11.04-.17.11-.2.2-.08.28.12.35.29.05.14.57.16.63.03.18-.38.1-.89.03-1.42l-3.31-.03c-.83,0-1.68-.1-2.48-.21v-.21c.23-.03.45.08.8-.07-.28-.23-.67-.2-.8.07-.25.27-.51-.41-.68-.31-.13.15-1.47.2-1.56-.13-.03-.11.11-.17.13-.46-.08.21-.38.27-.64.57,0,.37.78.57,1.16.42-.04.09-.17.13-.03.23-.12-.03-.12-.12-.22.07-.03.07-.14.09-.1.2-.09-.01-.24.03-.19-.13.07-.27-.21-.45-.49-.29-.57-.13-1.23-.56-1.84-.55-.02-.14-.28-.34-.53-.31-.16.02-.44.09-.45.3,0,.09-.08.22-.18.19-.07-.02-.11-.05-.23-.07v-.3c.06-.97.3-2.07-.19-2.94-.07-.12-.11-.24-.18-.3-.19-.19-.4-.09-.43.12-1.25-.6-.89.14-1.71-.01v-.39c1.61.05,3.17-.29,4.69-.69-.05.36.33.34.52.29-.08.09-.09.18.01.27-1.08.17-1.35,2.58-1.48,1.64.02.11.21.11.34.22.96.5,2.14.12,3.33.19-.3-.32-.8-.03-1.09-.41-.23-.02-.48.33-.86.18.39-.51.2-1.09.19-1.71.08-.23.46-.24.54-.52.02-.06-.19-.12-.15-.21s-.04-.25-.11-.21-.34.15-.43-.06c-.12-.3.36-.41.57-.38.29.08.46-.24.74.04.02.15-.07.35.06.56.09.02.29-.19.33-.28.09-.2-.22-.32-.23-.51.06-.4.4.01.6.02Z"/>
                        <g>
                          <path class="cls-121" d="M123.7,105.05c0,.07,0,.14,0,.21-.56.12-1.04-.2-1.58-.22-.21,0-.54-.42-.6-.02-.16-.1-.18.11-.16.23-.28-.29-.45.03-.74-.04.19.03.35-.53.55-.52.83.03,1.76.27,2.52.37Z"/>
                          <path class="cls-22" d="M120.2,106.58c-.13-.06-.28-.12-.43-.1-.1-.08-.09-.17-.01-.27.27-.14.53-.3.83-.37-.04.09.17.15.15.21-.08.28-.46.29-.54.52Z"/>
                          <path class="cls-72" d="M133.66,113.99c-1.39-.57-3.22-.73-4.39-1.07-.48-.14-.52-1.47.02-1.57,1.55-.28,2.97.06,4.35-.11.21,1.02.22,1.86.02,2.76Z"/>
                          <path class="cls-96" d="M125.65,108.63v1.28c-.27.05-.49-.09-.87.11-.19.1-.27-.29-.18-.45.07-.12.26-.08.53-.26l-.66-.27c2.29-.48-.56.37,1.52-.73.29-.15.08-.3.13-.61.85-.15,1.75-.05,2.65.11-.09.38-.33.3-.64.2-.4-.05-.42.21-.03.2.29-.09.48,0,.63.09.1.05-.02.36-.22.39-.95.15-1.89.07-2.86-.06Z"/>
                          <path class="cls-2" d="M135.24,113.19c0,.38-.19.49-1.07.79-.38-.56-.05-1.32-.15-2.16,0-.15.22-.14.28-.14.12,0,.13-.14.01-.18-.06-.02-.21.03-.21-.23l.86-.1c.76.53.27,1.49.28,2.03Z"/>
                          <path class="cls-86" d="M128.82,110.42c-3.16.49-1.75-.77-2.7-.18-.14-.32-.12-.7,0-1.16,1.07.83,3.17-.15,2.61.73-.1.16-.4.14-.74.13.11.42.6-.12.85.47Z"/>
                          <path class="cls-18" d="M120.2,106.58c0,.63.2,1.2-.19,1.71-.39-.15-.96.26-1.38.04-.12-.11-.32-.1-.34-.22.13.94.4-1.47,1.48-1.64.15-.02.3.04.43.1Z"/>
                          <path class="cls-113" d="M135.97,113.02c.1-.56-.22-1.31.15-1.78.25-.32,1.09-.17,1.13.15.07.62.07.98-.14,1.47.01.25-.12.17-.39-.03-.04.27-.24.36-.43.33-.1-.01-.12-.21-.31-.14Z"/>
                          <path class="cls-117" d="M123.95,106.23c.33.29.1.94-.15,1.03-.36.13-1.01.24-1.27-.09-.18-.25-.5-.88-.21-1.06.46-.09,1.3-.16,1.63.12Z"/>
                          <path class="cls-47" d="M128.95,106.46c-.01.05.02.24-.04.34-1.05-.1-2.15-.21-3.17-.63-.35-.15-.65.04-1.09-.05-.21-.05-.28-.29-.26-.39.02-.09.13-.09.26-.1l4.3.84Z"/>
                          <path class="cls-108" d="M130.51,107.33c-.42.18-.63.27-.87.58-.11.06-.46.08-.25.36.71.21,1.46.13,2.24.47-.65.5-1.18-.18-1.81.16-.13.07-.05.44-.2.44s-.3-.02-.64.17c.14-.37.02-.72.11-1.15l.21-.97c.51,0,.85.08,1.2-.05Z"/>
                          <path class="cls-68" d="M124.09,108.75c-.06.43.21.83.24,1.42.05.41-.35.44-.28-.11-.27-.12-.63-.06-.92.02-.18-.34-.39-1.05-.08-1.29.2-.16.43-.24.55-.24.18,0,.5-.09.49.2Z"/>
                          <path class="cls-36" d="M140.42,110.54c-.09.03-.14.12-.22.17-.33-.1-.89-.21-1.26-.48-.24-.18-.76.27-1.22.07-.18-.08-.24-.3-.17-.42.18-.31,3.29,0,2.87.66Z"/>
                          <path class="cls-32" d="M124.09,108.75c0-.29-.31-.19-.49-.2-.12,0-.34.08-.55.24-.31.24-.1.95.08,1.29-.17.05-.27.31-.45.14-.07-.06-.21-.16-.17-.26.3-.09.31-.57.12-.82-.35-.45-1.03.23-1.06,0-.49-.04-.98-.09-1.41.18.05-.04.04-.14.04-.19-.53-.83,1.29.48,2.83-.72.27-.21.81.13,1.16-.22.11-.04.11.24.1.43,0,.07-.07.13-.2.11Z"/>
                          <path class="cls-99" d="M130.46,110.5c-.64-.03-.98-.3-1.4-.05-.09-.39,0-.62.18-.75.44-.3,1.47.13,1.46.09.05.15.12.72-.23.7Z"/>
                          <path class="cls-28" d="M133.52,110.33c-.91.13-1.71.09-2.58.04-.07,0-.07-.49,0-.51s.16.06.36-.04c.77.21,1.47.16,2.22.51Z"/>
                          <path class="cls-105" d="M130.51,107.33l-1.23-.23c-.08,0-.11-.38-.06-.31-.22-.35,2.52.36,2.87.48-.54.21-1.07-.25-1.57.06Z"/>
                          <path class="cls-117" d="M124.7,107.49c-.41.15-.44-.18-.42-.33.03-.3-.04-.77.35-.75.33.01.59-.03.73.15.13.17.11.41.07.7-.02.18-.39.1-.73.23Z"/>
                          <path class="cls-128" d="M120.19,109.14c0,.06.02.16-.04.19-.22.16-.08.47-.19.82-.2.07-.62.02-.98.01-.27,0-.24-.54-.16-.71.23-.47.99-.28,1.37-.31Z"/>
                          <path class="cls-84" d="M118.44,106.84c0,.19.27.26.2.45.11-.3-.45.86-.49.87-.11.02-.28.02-.53,0-.22-.03-.45-.67.24-1.31.19.04.39-.03.58-.01Z"/>
                          <path class="cls-118" d="M123.71,105.26c.08.18.42.07.51.52-.56.18-1.07-.05-1.73,0-.39.03-.43-.51-.37-.74.54.02,1.03.34,1.58.22Z"/>
                          <path class="cls-101" d="M133.56,109.22c-.03.36.02.56-.08.65-.18.16-.66-.03-.92-.15-.1-.04.22-.89.41-.95.28-.09.62-.07.59.44Z"/>
                          <path class="cls-30" d="M122.92,110.7v.21c-.57-.07-1.05-.34-1.6-.12-.38.15-1.16-.05-1.16-.42.26-.3.57-.36.64-.57-.02.29-.16.35-.13.46.09.33,1.43.28,1.56.13.17-.1.43.58.68.31Z"/>
                          <path class="cls-91" d="M122.52,109.97c-.28-.11-.91-.27-1.01-.52-.03-.08.13-.15.06-.29.03.22.72-.46,1.06,0,.19.25.19.72-.12.82Z"/>
                          <path class="cls-43" d="M128,107.27c-.69.13-1.25.06-1.91-.07.27-.36.67-.46,1.11-.29.25.16.6-.11.8.36Z"/>
                          <path class="cls-15" d="M118.63,108.34c.42.22.99-.19,1.38-.04s.63-.21.86-.18c.29.38.78.09,1.09.41-1.18-.07-2.37.3-3.33-.19Z"/>
                          <path class="cls-93" d="M117.07,110.13c-.13.06-.21-.14-.3-.23-.14-.14.21-.31.11-.56-.31-.76.11-1.45-.02-2.15.5.87.25,1.97.21,2.94Z"/>
                          <path class="cls-3" d="M118.36,109.9c-.4.1-.62-.03-.7-.29-.09-.29.76-.58.89-.3.08.18.15.5-.18.59Z"/>
                          <path class="cls-94" d="M135.03,110.04c.19.03.22.12.26.2.09.17-.1.44-.2.38-.14-.08-.5-.1-.46-.21.05-.15.29-.39.4-.37Z"/>
                          <path class="cls-106" d="M125.66,110.13c-.12.28-.29.38-.5.38s-.38-.11-.5-.38c.38-.03.62-.03,1,0Z"/>
                          <path class="cls-78" d="M118.45,110.32c-.39,0-.67.33-.98,0,.02-.21.29-.28.45-.3.25-.03.51.17.53.31Z"/>
                          <path class="cls-17" d="M136.31,108.95c.17.02.43-.13.61.07.07.08.32.25.1.29-.33.06-.54.07-.66-.06-.1-.11-.18-.18-.04-.3Z"/>
                          <path class="cls-14" d="M128.91,107.29c0,.18-.74.24-.76-.13-.02-.3.7-.22.76.13Z"/>
                          <path class="cls-12" d="M121.36,105.25c-.02-.12,0-.33.16-.23,0,.19.32.31.23.51-.04.09-.24.3-.33.28-.13-.21-.04-.41-.06-.56Z"/>
                          <path class="cls-113" d="M135.97,113.02c-.03.19-.17.34-.31.39-.1.04-.08-.22-.1-.28-.03-.1.03-.34.18-.22.06.05.1.17.23.11Z"/>
                          <path class="cls-30" d="M122.92,110.7c.13-.27.53-.3.8-.07-.35.16-.58.04-.8.07Z"/>
                          <path class="cls-12" d="M120.87,105.71c0-.18.25-.08.3.02.04.06,0,.22-.08.28-.06.04-.21-.11-.22-.3Z"/>
                          <path class="cls-114" d="M118.44,106.84c-.19-.01-.4.05-.58.01-.05-.23.11-.25.29-.25.21,0,.3.01.29.24Z"/>
                          <path class="cls-11" d="M121.23,107.38c.21.11.12.21-.11.24-.45-.03-.4-.27.11-.24Z"/>
                        </g>
                      </g>
                      <path class="cls-1" d="M114.23,109.37c0-.3-.14-.55.13-.81.61-.07,1.19.15,1.91.14.05.29.08.63,0,1.04-.06.27-.43.17-.64.17s-.25-.19-.41-.39c-.13.3-.1.5-.38.35-.1-.31-.35-.51-.61-.5Z"/>
                      <g>
                        <path class="cls-46" d="M140.25,112.45v-.19c-.35-.06,2.16-.17,2.33-.25.23-.1.32-.89.04-.95-.79-.17-1.65-.04-2.42-.04-.04-.12-.2-.23-.01-.31.08-.05.13-.14.22-.17.01.22.24.18.22-.04.23.2,1.97.47,2.04-.15.03-.29.14-.57.01-.85-.06-.13-.04-.24-.13-.29-.45-.22-4.14-.82-4.87-.9-.02-.09-.16-.17-.22-.12-.09.08-.13.26-.31.19-.38-.44-1.04-.35-1.55-.19-.26-.04-.44-.73-.72-.1.18-.38-.27-.38-.45-.47-.32-.16-.51.41-.63.78-.42-.23.02-.66-.22-.92-.22-.15-.44-.14-.36-.35.05-.1.38.13.5.05l.09-4.25c.56.09,1.21-.32,1.72-.14l1.7.6c.72.26.47,1.19.35,1.74-.21.95-.01,1.91-.06,2.94l5.36.83c.22,1.1.07,2.18.07,3.37.02-.12-3.2.39-2.72.19Z"/>
                        <g>
                          <path class="cls-58" d="M142.69,109.5c-.8-.21-5.13-.61-5.15-.66-.08-.14-.07-.49.15-.54.73.09,4.43.68,4.87.9.09.04.07.15.13.29Z"/>
                          <path class="cls-113" d="M142.67,110.35c-.07.63-1.81.35-2.04.15-.24-.97,1.4.05,2.04-.15Z"/>
                          <path class="cls-17" d="M137.15,108.39c.15.13-.03.36-.17.38-.16.03-.34-.05-.52-.21-.18.07-.04.3-.15.39-.38-.1.05-.29,0-.38-.11-.19-.33-.24-.47-.02-.13-.15-.11-.36-.24-.36.51-.17,1.17-.26,1.55.19Z"/>
                          <path class="cls-76" d="M137.32,107.91c-.59.04-1.04-.24-1.75-.29l.05-4.59c.75.14,1.16.41,1.71.67v4.2Z"/>
                          <path class="cls-104" d="M135.25,107.33c-.08.39-1.35.05-1.28-.46.16-1.13-.1-2.27.2-3.22.09-.28,1.12-.23,1.15.11.07,1.14.2,2.28-.06,3.58Z"/>
                          <path class="cls-111" d="M135.4,103.19c-.29.26-.7.18-1.2.03.34-.2.74-.17,1.2-.03Z"/>
                        </g>
                      </g>
                    </g>
                  </g>
                </g>
              </g>
            </g>
          </g>
        </g>
        <g>
          <path class="cls-81" d="M76.35,146.55c.35-1.73,1.07-3.39,2.04-4.88,1.36,1.08.82,3.09.88,4.98-1.09-.08-2.01.13-2.92-.1Z"/>
          <g>
            <path class="cls-5" d="M148.77,144.13c-.2,0-.16.16-.05.26s.13.19.25.07c-.19.25.08.45.2.67-.28-.03-.48.24-.79.12-.41-.16-.88-.14-1.24-.11.43-3.04-.26-6.13-1.78-8.9.65-3.41.52-6.73.41-10.2h31.25s-.06-34.6-.06-34.6c0-1.42.11-2.89.01-4.47h-71.51c-.21,1.55-.08,3.13-.08,4.64l.03,34.47c0,.43-.22.85-.03,1.36.92.03,3.08-.16,3.51.19-.18,2.82-.32,5.67.2,8.62-.5,1.28-1.25,2.51-1.58,3.86l-4.13-.1-14.93-.08-9.05.06c-.64.37-.73,1.23-1.02,1.68-.97,1.48-1.68,3.15-2.04,4.88-.19-.05-.6.24-.77-.04-.03-.35-.19.05-.33,0,.84-2.68,1.46-3.92,2.8-6.49l-4.98-.04c-1.38,0-2.43-.98-2.43-2.47v-41.98c0-1.05.75-2.19,1.87-2.19l29.33-.04.03-7.74c0-1.19.84-2.39,2.22-2.39h73.69c1.53-.01,2.53.9,2.53,2.44v51.9c0,1.25-.81,2.48-2.11,2.48l-30.24.07c.31,1.6.28,2.9.81,4.05Z"/>
            <g>
              <path class="cls-66" d="M149.17,145.13c-.12-.22-.4-.42-.2-.67l.52-.02c.11,0,.14.24.11.43-.02.15-.23.29-.42.27Z"/>
              <g>
                <g>
                  <path class="cls-4" d="M172.59,134.53c.96-.45,1.95.11,2.27.98s-.05,1.8-1.02,2.23c-.76.34-1.71-.06-2.12-.87s-.09-1.89.86-2.34Z"/>
                  <path class="cls-98" d="M173.17,130.13c.47-.17.88.17,1.01.52.17.45-.14.85-.44,1.02-.4.22-.93-.02-1.06-.32-.2-.48-.06-1.01.49-1.21Z"/>
                </g>
                <g>
                  <path class="cls-31" d="M100.83,123.55h-23.82c-.08-.18.13-.21.22-.39h23.43c.09.11.19.17.17.39Z"/>
                  <path class="cls-34" d="M100.66,125.5h-23.28c-.22-.04-.39-.18-.38-.39h23.88c.08.18-.12.2-.22.39Z"/>
                  <path class="cls-123" d="M101.04,127.27l-7.73.2c.11-.35.43-.2.57-.48l7.16.28Z"/>
                  <path class="cls-57" d="M96.28,121.6c-.7,0-3.02.4-2.67-.44.08-.2,3.45-.43,2.67.44Z"/>
                  <path class="cls-61" d="M81.13,121.31c-.79.48-1.91.46-2.87.04.94-.23,1.83-.17,2.87-.04Z"/>
                  <path class="cls-135" d="M75.41,135.1c.34-.18.68,0,.77.29.07.21-.05.53-.35.68-.18.09-.45.1-.64-.16-.14-.19-.18-.59.22-.81Z"/>
                  <g>
                    <path class="cls-60" d="M101.7,118.88c-.87-.02-1.8.08-2.66-.16-.55-.15-1.01.12-1.53.12l-23.78.04c-.11,0-.19-.37-.28-.2v-22.56s28.4-.06,28.4-.06v22.2c.03.3-.16.43-.16.61Z"/>
                    <g>
                      <path class="cls-126" d="M101.7,118.88l-28.18.24-.07-.44c.09-.17.17.2.28.2l23.78-.04c.52,0,.99-.27,1.53-.12.86.24,1.79.14,2.66.16Z"/>
                      <path class="cls-29" d="M75.89,117.59c-.4.31-.93.31-1.41.35-.18-.04-.13-.66.12-.58.47.14.85-.33,1.29.23Z"/>
                      <path class="cls-102" d="M74.5,99.57c.15-.3.57-.2.73-.07.13.1.27.33.1.54-.14.18-.38.19-.59.16s-.41-.28-.24-.63Z"/>
                      <path class="cls-116" d="M75.61,97.14c.06.42-.07.67-.22.35-.18-.42-.59-.12-.97-.32.21-.37.8-.24,1.18-.03Z"/>
                      <path class="cls-40" d="M75.75,116.14c-.45.02-.8.02-1.32,0,.08-.21.21-.32.31-.37.22-.1.61.16,1,.37Z"/>
                      <path class="cls-67" d="M75.56,98.33c-.3.17-.75.19-1.07.03-.2-.1.04-.41.25-.34.14.04.24.17.82.31Z"/>
                      <path class="cls-10" d="M83.2,110.51v2.14c0,.14,0,.28,0,.41-.43.3-1.06.16-1.56.1.04-.15-.09-.14-.19-.13h-.63c.02-.86-.04-1.74.12-2.56l2.27.03Z"/>
                      <path class="cls-77" d="M79.86,105.46c.05.85.03,1.71-.03,2.63h-1.89c-.45-1.54,0-1.33,0-3.23.74-.15,1.34.17,1.92.6Z"/>
                      <path class="cls-33" d="M79.89,103.69c-.06.32.09.92-.15,1.18-.45.49-1.42-.68-1.79-.21l-.1-2.54c.77-.1,1.37-.14,2.04-.02,0,.61.1,1.1.01,1.58Z"/>
                      <path class="cls-75" d="M83.18,108.75c-.01.54.18,1.11-.17,1.56-.61-.01-1.24.05-1.9-.08-.2-.3.02-.61-.09-.89-.02-.14-.04-.38-.03-.52.02-.44,1.89-.33,2.2-.07Z"/>
                      <path class="cls-29" d="M87.27,104.88c-.26,0-.57-.06-.76.14-.05-.07-.17-.02-.21-.12l.02-2.59c.38-.2.71.05,1.01-.15.07.9.06,1.82-.05,2.72Z"/>
                      <path class="cls-71" d="M85.93,104.94c.08.3.22-.14.37-.04.04.1.16.05.21.12-.19,1.03-.41,2.17,0,3.15-.13-.02-.26,0-.39,0-.49-.67.08-1.74-.22-2.72-.42-.33-1.47-.29-1.93,0v-.58c.66.08,1.31.33,1.95.08Z"/>
                      <g>
                        <path class="cls-137" d="M96.23,105.29c-.19.1-.78-.12-.95.17-.15.84-.1,1.68-.11,2.51h2.44c-.05.16.2.19.19.37l-2.57-.02.03,2.61c.83.22,2.41-.34,2.85.15.62.69-1.7-.11-2.9.18v2.59s2.65.47,2.65.47c.23.04.33.16.35.31.07.51-1.13.29-2.36.49-2.97.47-5.86.68-8.88.96.05-1,.39-1.64-.08-2.43-.45.88,0,1.65.04,2.42-1.7.38-5.14.59-6.78.24-.19-5.05.24-1.87-1.82-4.64.49-.25.99,1.22,1.59,1.15l-.09-4.4c-.71-.18-1.36-.03-2.08,0l.02,2.51c0,.28.46.44.56.75-.11-.13-.74-.06-.75-.47l-.03-9.46h4.09c-.27.45-.87.04-1.31.26l-.07,1.9c-.2-.05-.22-.25-.37-.21.09-.48-.02-.97-.01-1.58-.67-.12-1.27-.09-2.04.02l.1,2.54v.19c0,1.9-.45,1.69,0,3.24h1.89c.06-.93.09-1.79.03-2.64.81-1.74.11,4.29.71,4.9l.44-1.02c.1.29-.11.59.09.89.67.13,1.3.07,1.9.08.15,0,.19.05.19.19l-2.27-.03c-.16.82-.1,1.7-.12,2.56,0,.27.25.18.34.2s.21.27,0,.27c-.11,0-.34-.07-.57-.11-.26.54-.06,1.3-.13,2.07l2.56.18-2.59.22c.91.35,1.82.31,2.91.18-.1-.82.03-1.51.02-2.35l-1.95-.15c.07-.3.04-.41.04-.51.1-.01.23-.02.19.13-1.39.25,3.05.47,1.94.12l.09,2.93c.97-.29,1.77-.27,2.65-.25.01-1.81-.11-3.43.09-5.18.09-.77-.4-1.68.1-2.41.22-.03.48.09.79-.09-.24-.21-.53-.08-.79-.11-.41-.98-.19-2.12,0-3.15.19-.2.5-.14.76-.14.31.59,1.15.24,1.77.19-.07-.94.27-2.25.06-2.46-.46-.45-.36.49-1.43-.16-.14-.43,1.94.41,1.61-.3-.69-.05-1.23-.05-1.78,0,0-.04,0-.16-.06-.17-1.71-.24-3.44.24-5.01-.24.35-.05,6.36.22,5.94-.48l.23.37c.26.43,1.29-.01,1.57.43.13.2.11.67-.1.66-.1-.31.08-.57-.26-.59l.08,3.04c.6-.29,6.03.26,4.93-.56-.11-.08-.27-.09-.46-.08-5.82.53-3.89-.65-3.97-.65,1.56-.07,2.99-.1,4.56-.02.22.35.02.73.19,1.13.73.03,1.31-.28,2-.03-.23.51-.64.19-.9.32Z"/>
                        <g>
                          <path class="cls-131" d="M96.23,105.29c-.09.15.2.16.29.34.03.62-.12,1.14-.04,1.82.04.39,2.19-.13,1.13.52h-2.44c0-.83-.04-1.68.11-2.52.17-.29.76-.07.95-.17Z"/>
                          <path class="cls-134" d="M92.78,113.81l-2.95-.11c-.12-.38.31-.52.03-.75l-.39.89c-.07-1.16-.06-2.28.01-3.55.38.57,0,1.15.3,1.77.22-1.27,1.46-.75,2.98-.8v2.54Z"/>
                          <path class="cls-110" d="M89.9,110.87c-.22-.13-.03-.7-.2-.75-.32.48-.33-.99-.05-1.35.48-.63,2.37-.58,3.03-.33.32.7.03,1.65.09,2.48l-2.87-.05Z"/>
                          <path class="cls-8" d="M78.34,111.67c-.1-.31-.56-.47-.56-.75l-.02-2.51c.73-.03,1.37-.18,2.08,0l.09,4.4c-.59.08-1.1-1.39-1.59-1.15Z"/>
                          <path class="cls-136" d="M90.36,115.47c-1.14.12-2.57.44-2.98.19-.17-.1-.1-.87.13-.91,1.73-.3,3.46-.05,5.23-.19s3.33-.24,4.89.13l-5.46.6-1.8.18Z"/>
                          <path class="cls-129" d="M81.45,113.04c0,.09.03.2-.04.51l1.95.15c.02.85-.12,1.54-.02,2.35-1.09.13-1.99.17-2.91-.18l2.59-.22-2.56-.18c.06-.78-.13-1.53.13-2.07.23.04.46.11.57.11.2,0,.09-.25,0-.27s-.35.07-.34-.2h.63Z"/>
                          <path class="cls-115" d="M92.73,107.96h-2.37c-.06-.83.03-1.51-.16-2.33.88-.16,1.7-.17,2.57-.05.09.79-.06,1.39-.05,2.37Z"/>
                          <path class="cls-73" d="M87.27,104.88c.11-.9.13-1.82.05-2.72.06.09.11,0,.17,0,.55-.05,1.09-.05,1.78,0,.33.71-1.75-.13-1.61.3,1.07.65.97-.29,1.43.16.21.21-.13,1.52-.06,2.46-.62.04-1.45.4-1.77-.19Z"/>
                          <path class="cls-85" d="M95.01,113.98c-.77-.01-1.23-.03-1.88-.15l.03-2.53c.51,0,1.45-.28,1.66.27.28.7,0,1.47.19,2.42Z"/>
                          <path class="cls-90" d="M89.18,107.9c-.61.1-1.15.2-1.79.2-.1-.89-.1-1.59-.05-2.55.55.14,1.08.01,1.77.05.16.73.03,1.38.07,2.3Z"/>
                          <path class="cls-54" d="M89.15,110.91c-.66-.05-1.05,0-1.78.11v-2.71s1.86.05,1.86.05l-.08,2.55Z"/>
                          <path class="cls-82" d="M89.12,111.17l.06,2.54-1.61-.06c-.28-.82-.22-1.69-.2-2.57l1.75.09Z"/>
                          <path class="cls-21" d="M94.88,110.96c-.58.07-1.08,0-1.67-.08v-2.51s1.61-.14,1.61-.14c.2.9.14,1.76.06,2.73Z"/>
                          <path class="cls-70" d="M94.81,107.73c-.11.35-1.2.39-1.34.07-.31-.74-.06-1.62-.14-2.34.58-.03.97-.04,1.62,0-.08.78.11,1.47-.14,2.27Z"/>
                          <path class="cls-89" d="M89.55,114.2c-.05.21-2.12.45-2.07-.08.01-.17-.05-.37.26-.19.52.3,1.14-.22,1.81.27Z"/>
                          <path class="cls-38" d="M91.91,114.2c-.71.38-1.43.3-2.1-.12.63-.06,1.25-.27,2.1.12Z"/>
                          <path class="cls-74" d="M89.82,105.64v1.17c-.16.02-.39.02-.39-.1v-.48c0-.24-.06-.48.17-.66.07-.06.13-.21.22.08Z"/>
                          <path class="cls-80" d="M89.82,106.81v-1.17c.5.63.09,1.58.14,2.35-.29-.43-.14-.83-.14-1.18Z"/>
                          <path class="cls-42" d="M89.53,105.08c-.13-.73-.22-1.39,0-2.18.16.72.2,1.46,0,2.18Z"/>
                          <path class="cls-100" d="M89.69,102.41c-.07.37-.27.32-.26.19.02-.26-.1-.36-.05-.41.08-.08.35-.08.3.22Z"/>
                          <path class="cls-62" d="M89.66,107.6c-.03.45-.23.45-.26,0,.04-.25.22-.25.26,0Z"/>
                        </g>
                      </g>
                      <path class="cls-132" d="M86.12,108.17c-.62.03-1.22.04-2-.02-.17-.94-.14-1.83-.14-2.71.46-.28,1.51-.32,1.93,0,.29.98-.28,2.05.22,2.72Z"/>
                      <path class="cls-9" d="M85.94,110.7l.12,2.45c-.79,0-1.51.19-2.11-.11.05-.68.02-1.34,0-2.26l1.99-.08Z"/>
                      <path class="cls-16" d="M85.93,104.94c-.64.25-1.29,0-1.95-.08v-1.97c.69-.24,1.37-.21,1.96-.09v2.14Z"/>
                      <g>
                        <path class="cls-52" d="M82.42,101.74c1.57.49,3.3,0,5.01.24.07,0,.07.13.06.17-.06,0-.11.09-.17,0-.3.2-.63-.05-1.01.15l-.02,2.59c-.15-.1-.29.34-.37.04v-2.14c-.57-.12-1.26-.15-1.94.09v1.97s0,.58,0,.58c0,.88-.03,1.77.14,2.71.78.05,1.39.05,2,.02.13,0,.26-.02.39,0,.26.03.55-.11.79.11-.31.18-.57.06-.79.09s-.57-.13-.58.19c-.48.02-1.22-.2-1.68.11-.28.19-.34,1.16-.08,1.44.43.47,1.27.34,1.78.4-.02.07-.01.13,0,.19l-1.99.08c.02.92.05,1.58,0,2.26-.18-.08-.55.06-.74.02-.01-.14,0-.28,0-.41.08,0,.25.04.39-.04l-.06-3.67c0-.21.21-.39.23-.49.02-.11-.41-.16-.54-.02-.05.06.15.14.18.22.02.06-.16.14-.21.1-.31-.26-2.17-.37-2.2.07,0,.14.02.37.03.52l-.44,1.02c-.6-.61.1-6.64-.71-4.9-.58-.43-1.18-.75-1.92-.6v-.19c.38-.47,1.34.7,1.79.21.24-.26.1-.86.15-1.18.15-.04.17.15.37.21l.07-1.9c.44-.22,1.04.19,1.31-.26.24.05.54-.07.78,0Z"/>
                        <g>
                          <path class="cls-26" d="M83.2,112.65v-2.14c0-.14-.05-.19-.19-.19.35-.45.16-1.02.17-1.56.06.05.23-.04.21-.1-.03-.09-.23-.16-.18-.22.13-.15.56-.09.54.02-.02.1-.23.28-.23.49l.06,3.67c-.14.07-.31.03-.39.04Z"/>
                          <path class="cls-10" d="M83.21,108.19h-2.14c.04-1.05-.06-1.88-.2-2.75.69-.38,1.57-.16,2.39-.07l-.05,2.81Z"/>
                          <path class="cls-79" d="M83.26,104.65c.29.5-2.26.52-2.37.21.02-.54-.14-1.64.31-1.84.65-.3,1.37-.21,1.96-.29l.1,1.93Z"/>
                          <path class="cls-29" d="M85.93,108.56c.33.13,0,1.98.02,1.95-.51-.06-1.35.07-1.78-.4-.26-.28-.2-1.25.08-1.44.46-.31,1.2-.09,1.68-.11Z"/>
                          <path class="cls-19" d="M83.21,108.19l.05-2.81c-.82-.09-1.7-.31-2.39.07-.04-.25,0-.43.02-.58.11.31,2.66.29,2.37-.21.29.01.38.31.37.6l-.08,2.67c0,.14-.26.27-.34.28Z"/>
                          <path class="cls-103" d="M83.4,102.49c-.61.12-1.25-.16-1.79.07l-.45.19c-.2.09-.6-.06-.53-.48.87-.12,1.89-.37,2.77.22Z"/>
                        </g>
                      </g>
                      <g>
                        <path class="cls-65" d="M86.51,108.36c-.5.73,0,1.65-.1,2.41-.2,1.75-.08,3.36-.09,5.18-.88-.02-1.68-.04-2.65.25l-.09-2.93c1.11.34-3.33.12-1.94-.12.51.06,1.14.2,1.56-.1.2.04.56-.1.74-.02.6.3,1.32.11,2.11.11l-.12-2.45c0-.07-.01-.13,0-.19-.01.04.31-1.82-.02-1.95,0-.32.37-.17.58-.19Z"/>
                        <path class="cls-63" d="M86.11,115.69c-.61.03-1.36.34-2.05-.17.7.01,1.18,0,2.05.17Z"/>
                      </g>
                    </g>
                  </g>
                </g>
              </g>
            </g>
          </g>
        </g>
      </g>
    </g>
  </g>
</svg>