<?xml version="1.0" encoding="UTF-8"?>
<svg id="Layer_3" data-name="Layer 3" xmlns="http://www.w3.org/2000/svg" viewBox="0 0 256 256">
  <defs>
    <style>
      .cls-1 {
        fill: #546484;
      }

      .cls-2 {
        fill: #67799f;
      }

      .cls-3 {
        fill: #79a0cc;
      }

      .cls-4 {
        fill: #c7cbd2;
      }

      .cls-5 {
        fill: #7f8ea8;
      }

      .cls-6 {
        fill: #fcfdff;
      }

      .cls-7 {
        fill: #516382;
      }

      .cls-8 {
        fill: #8c9cb8;
      }

      .cls-9 {
        fill: #6681a6;
      }

      .cls-10 {
        fill: #fed1d7;
      }

      .cls-11 {
        fill: #add3f5;
      }

      .cls-12 {
        fill: #afa8bd;
      }

      .cls-13 {
        fill: #d1d6dd;
      }

      .cls-14 {
        fill: #b7c5d8;
      }

      .cls-15 {
        fill: #fff;
      }

      .cls-16 {
        fill: #9f96ac;
      }

      .cls-17 {
        fill: #334e6d;
      }

      .cls-18 {
        fill: #586887;
      }

      .cls-19 {
        fill: #7d89a7;
      }

      .cls-20 {
        fill: #96bfe8;
      }

      .cls-21 {
        fill: #becbdb;
      }

      .cls-22 {
        fill: #84a9d2;
      }

      .cls-23 {
        fill: #ffd3d9;
      }

      .cls-24 {
        fill: #7e829b;
      }

      .cls-25 {
        fill: #edeef3;
      }

      .cls-26 {
        fill: #ffd0d7;
      }

      .cls-27 {
        fill: #61728f;
      }

      .cls-28 {
        fill: #90c2ef;
      }

      .cls-29 {
        fill: #566886;
      }

      .cls-30 {
        fill: #7eadde;
      }

      .cls-31 {
        fill: #fea5b3;
      }

      .cls-32 {
        fill: #afc4db;
      }

      .cls-33 {
        fill: #c4cfe0;
      }

      .cls-34 {
        fill: #6f829d;
      }

      .cls-35 {
        fill: #7784a0;
      }

      .cls-36 {
        fill: #777a99;
      }

      .cls-37 {
        fill: #536484;
      }

      .cls-38 {
        fill: #a9a4bb;
      }

      .cls-39 {
        fill: #5c6f8d;
      }

      .cls-40 {
        fill: #637293;
      }

      .cls-41 {
        fill: #697a96;
      }

      .cls-42 {
        fill: #ffd1d7;
      }

      .cls-43 {
        fill: #536584;
      }

      .cls-44 {
        fill: #c7ccd2;
      }

      .cls-45 {
        fill: #8b9ec4;
      }

      .cls-46 {
        fill: #ffc2cc;
      }

      .cls-47 {
        fill: #e8eef4;
      }

      .cls-48 {
        fill: #cedcea;
      }

      .cls-49 {
        fill: #8698b8;
      }

      .cls-50 {
        fill: #e4e5e9;
      }

      .cls-51 {
        fill: #a8b8d0;
      }

      .cls-52 {
        fill: #cccdcf;
      }

      .cls-53 {
        fill: #fcfcfd;
      }

      .cls-54 {
        fill: #7b5a78;
      }

      .cls-55 {
        fill: #accff0;
      }

      .cls-56 {
        fill: #617090;
      }

      .cls-57 {
        fill: #fdfdfe;
      }

      .cls-58 {
        fill: #ccd8e6;
      }

      .cls-59 {
        fill: #fefeff;
      }

      .cls-60 {
        fill: #ffdbde;
      }

      .cls-61 {
        fill: #8b9db9;
      }

      .cls-62 {
        fill: #fcfcfe;
      }

      .cls-63 {
        fill: #c5cad1;
      }

      .cls-64 {
        fill: #90a0bb;
      }

      .cls-65 {
        fill: #b0c3d7;
      }

      .cls-66 {
        fill: #e57995;
      }

      .cls-67 {
        fill: #84a8cd;
      }

      .cls-68 {
        fill: #837991;
      }

      .cls-69 {
        fill: #c9ced4;
      }

      .cls-70 {
        fill: #c7d5e3;
      }

      .cls-71 {
        fill: #7ca3cf;
      }

      .cls-72 {
        fill: #d6e6f6;
      }

      .cls-73 {
        fill: #334e6c;
      }

      .cls-74 {
        fill: #fbfbfc;
      }

      .cls-75 {
        fill: #fefdfe;
      }

      .cls-76 {
        fill: #fefefe;
      }

      .cls-77 {
        fill: #7c91b2;
      }

      .cls-78 {
        fill: #e9eff7;
      }

      .cls-79 {
        fill: #ebedf2;
      }

      .cls-80 {
        fill: #9eb4d6;
      }

      .cls-81 {
        fill: #fcfdfe;
      }

      .cls-82 {
        fill: #8ec1f0;
      }

      .cls-83 {
        fill: #dce2e9;
      }

      .cls-84 {
        fill: #7a5a77;
      }

      .cls-85 {
        fill: #fdfdfd;
      }

      .cls-86 {
        fill: #bac6d5;
      }

      .cls-87 {
        fill: #ffb9c4;
      }

      .cls-88 {
        fill: #bad7f0;
      }

      .cls-89 {
        fill: #324e6c;
      }
    </style>
  </defs>
  <g id="Generative_Object" data-name="Generative Object">
    <path class="cls-55" d="M142.5,161.18c-.35-.68-.93-1.2-1.68-1.39-.17-.07-.14-.24-.03-.31.12-.08.26-.12.39-.18,1.03-.49,1.42-1.53,1.92-2.56.44,1.36,1.03,2.33,2.36,2.79-.68.39-1.38.5-1.69,1.16l-.72,1.53-.54-1.04Z"/>
    <path class="cls-20" d="M72.98,145.26c.3.26-1.29.08-1.86,1.89-.03.11-.15.27-.23.27-.35.03-.1-1.5-2.19-2.12,2.11-.64,1.81-1.87,2.19-2.09.33-.2.2,1.62,1.92,1.89.07.01.14.14.17.16Z"/>
    <path class="cls-15" d="M142.5,161.18c-.47.08-.91.03-1.37-.26-.38-.23-.51-.77-.31-1.14.75.2,1.33.71,1.68,1.39Z"/>
    <g>
      <path class="cls-68" d="M115,175.27c.15-.02.16.12.15.29-.16,2.75.64,5.34,2.18,7.64,2.36,3.53,6.42,5.52,10.63,5.38s7.98-2.33,10.16-5.96c1.95-3.26,2.43-7.04,1.06-10.54-.05-.1-.05-.23.11-.22,1.14,2.8,1.38,6,.44,9.08-1.42,4.64-5.24,7.94-9.92,8.75-7.71,1.33-14.66-4.38-14.88-12.15-.01-.35-.18-.77.03-1.19.16-.32,0-.74.05-1.08Z"/>
      <g>
        <path class="cls-16" d="M139.28,171.86c-.16-.01-.16.11-.11.22,1.37,3.5.89,7.28-1.06,10.54-2.18,3.63-6.02,5.83-10.16,5.96s-8.27-1.85-10.63-5.38c-1.54-2.3-2.35-4.89-2.18-7.64.01-.17,0-.31-.15-.29.65-5.73,5.2-10.25,10.77-11.05s11.34,2.3,13.52,7.64Z"/>
        <path class="cls-15" d="M121.46,176.55c-.35-.55-.27-1.14.21-1.49.35-.26,1.06-.31,1.42.22l2.89,4.3c2.1-2.93,5.04-7.02,7.79-9.24.3-.24.72-.2,1.01-.1.25.09.72.57.41.94-2.96,3.55-5.81,7.07-8.39,10.89-.23.34-.63.48-.94.47s-.67-.19-.88-.5l-3.53-5.48Z"/>
        <path class="cls-12" d="M124.06,166.18c.05-.36-.09-.59-.09-.2-2.35.74-4.07,2.22-5.89,4.07.78-1.53,1.83-2.45,3.33-3.58,1.23-.92,2.62-1.25,4.05-1.5,1.13-.2,2.24-.55,3.37-.14.56.2,1.23.06,1.73.59-.2.23-.5.29-.8.32-1.86.16-3.61.42-5.38,1s-3.17,1.75-4.91,2.65c.99-1.75,2.87-2.55,4.6-3.21Z"/>
      </g>
    </g>
    <g>
      <path class="cls-38" d="M88.08,138.78c-2.57,2.77-7.13,2.83-9.72.17-1.21-1.24-1.98-2.66-2.28-4.29-.71-3.88,1.77-7.46,5.48-8.22,3.85-.79,7.51,1.6,8.36,5.51.54,2.48-.02,4.88-1.83,6.83Z"/>
      <path class="cls-45" d="M78.8,137.78c.08.02.32-.02.38-.2.63-1.68,1.87-2.76,3.47-3.62-.18-.27-.41-.36-.6-.46-1.21-.58-1.75-1.99-1.2-3.2s1.88-1.81,3.18-1.19c.89.42,1.33,1.38,1.27,2.32s-.61,1.63-1.59,2.23c1.91.34,3.38,1.59,3.61,3.55l.19,1.62c-2.28,1.83-5.48,2.1-8.01.68-.39-.22-.8-.49-.87-.89-.05-.31.16-.59.16-.84Z"/>
      <path class="cls-80" d="M78.8,137.78c0-3.34,3.25-4.18,3.24-4.09v-.18c.2.09.44.18.62.46-1.6.85-2.85,1.94-3.47,3.62-.07.18-.3.22-.38.2Z"/>
    </g>
    <g>
      <path class="cls-15" d="M72.23,66.6c.02,1.04.05,2.09-.01,3.13-.27.06-.56-.13-.82.02.03-.21.25-.2.26-.37.13-1.18-.77.29-1.75-.14-.33-.15-.67-.54-.7-1.06-.03-.58.2-1.04.69-1.26.44-.2.94-.03,1.35.29.25-.03.5-.5.34-.69.22,0,.4.15.63.09Z"/>
      <path class="cls-37" d="M82.65,66.44c.11.87-.1,1.78.07,2.66.06.31.51.27.73.15.21-.12.39-.31.39-.66v-2.09c.21-.2.49-.2.75-.05-.05,1.08-.05,2.17,0,3.26-.03.15-.16.25-.35.23-.14-.01-.3-.05-.34-.22-.02-.18-.18-.16-.16.02-.42.42-1.39.33-1.73-.19-.2-1.01-.03-2.11.02-3.12.19-.02.45-.18.61,0Z"/>
      <path class="cls-18" d="M71.6,66.51c.16.19-.09.66-.34.69-.42-.32-.91-.49-1.35-.29-.49.23-.72.68-.69,1.26.03.52.36.91.7,1.06.98.43,1.87-1.04,1.75.14-.02.17-.23.16-.26.37-.85.49-1.93.32-2.52-.42-.62-.78-.52-1.93.05-2.56.74-.82,1.85-.8,2.68-.26Z"/>
      <path class="cls-15" d="M85.02,66.45c.02.16-.03.34.08.52l.97.07.09,2.86s-.15-.12-.19-.21l-1.38.03c-.05-1.08-.05-2.18,0-3.26h.43Z"/>
      <path class="cls-7" d="M86.88,67.04c-.11-.03-.15.02-.12.14.06.42-.02.85.01,1.27.02.26-.04.63.08.89.14.29.51,0,.69.04.16,0,.41.07.44.25.09.63-1.7.31-1.82.28l-.09-2.86-.97-.07c-.11-.18-.06-.36-.08-.52.87-.03,1.89-.06,2.81-.11.14.1.13.57-.02.62-.3.11-.67-.12-.93.08Z"/>
      <path class="cls-15" d="M79.47,66.62c-.14,1.04-.59,1.99-.92,2.99-.15-.02-.56-.01-.46-.3.05-.14.36-.17.32-.36-.03-.17-.11-.25-.28-.22-.09.01-.27-.01-.35.19.07.33-.25.39-.3.09.38-.14.04-.67.09-.93.08-.42.06-1.05.06-1.48.25.12.55-.23.84-.34.25.31.59.47.99.37Z"/>
      <path class="cls-15" d="M74.51,66.65c-.56.93-.7,2.1-.03,2.99-1.23.12-.03.2-1.51.21.13-1.08-.44-2.81.71-2.79.25,0,.23-.33.26-.45.2-.04.37,0,.57.03Z"/>
      <path class="cls-15" d="M83.83,66.51v2.09c.01.35-.18.54-.38.66-.22.13-.67.16-.73-.15-.17-.88.04-1.8-.07-2.66.46-.29.95.28,1.18.07Z"/>
      <path class="cls-29" d="M72.8,66.46c-.01.07.13.28.22.27s.24-.2.21-.28c.16-.09.4-.15.57,0-.02.09.02.19.14.18-.03.12-.02.45-.26.45-1.15-.02-.57,1.71-.71,2.79-.25,0-.65.25-.76-.13.07-1.04.04-2.09.01-3.13.01-.13.11-.24.23-.28.16-.06.26.12.35.13Z"/>
      <path class="cls-15" d="M82.04,66.44c-.06,1.01-.22,2.11-.02,3.12-.11-.04-.3.1-.39.16l-.97-3.22c.45.08.93,0,1.38-.05Z"/>
      <path class="cls-83" d="M77.64,66.59c0,.44.02,1.06-.06,1.48-.05.26.29.79-.09.93-.02-.09-.07-.16-.17-.16.11-.19-.11-2.54.18-2.25.04-.05.09-.02.13,0Z"/>
      <path class="cls-15" d="M87.55,69.37c-.19-.05-.55.25-.69-.04-.13-.26-.06-.63-.08-.89.26.3.43.69.77.93Z"/>
      <path class="cls-15" d="M73.24,66.44c.03.08-.12.28-.21.28s-.23-.2-.22-.27c.1.02.34.04.43-.01Z"/>
      <g>
        <path class="cls-1" d="M76.25,66.48c.44.47.75,1.15.56,1.84l-1.89.12c-.32.02.07.76.34.87.85.34,1.07-1.13,1.43-.14,0,.36-.45.91-.98.86-.34-.03-.97-.04-1.23-.39-.67-.9-.53-2.06.03-2.99.52-.35,1.19-.43,1.74-.17Z"/>
        <path class="cls-15" d="M77.51,66.59c-.3-.29-.07,2.06-.18,2.25-.08-.02-.34-.05-.44,0s-.2.23-.2.33c-.36-.98-.58.48-1.43.14-.28-.11-.67-.85-.34-.87l1.89-.12c.19-.7-.12-1.38-.56-1.84.49.1,1.39-.21,1.26.11Z"/>
        <path class="cls-53" d="M76.06,67.72c-.2.22-.96.17-1.17-.03-.2-.31.3-.86.66-.76.26.08.76.5.51.79Z"/>
      </g>
      <g>
        <path class="cls-43" d="M80.66,66.49l.97,3.22c0,.27-.49.35-.68.11-.16-.21-.11-.5-.18-.67-.05-.12-.13-.29-.29-.26-.23.05-.48,0-.71,0-.17,0-.4.24-.41.41-.01.23-.04.55-.36.61-.2.04-.66.03-.44-.32.33-1,.78-1.95.92-2.99.06-.47.96-.43,1.19-.13Z"/>
        <path class="cls-75" d="M80.49,68.22c-.16.23-.5.16-.74,0,.09-.41.15-.72.3-1.06.29.27.22.57.44,1.06Z"/>
      </g>
    </g>
    <g>
      <path class="cls-15" d="M139.82,69.45c-.09.09.02.21.11.28.06.05.17.01.21-.07.03-.06,0-.15-.02-.22.14.01.29.07.43.02l.02,1.97c-.43-.07-.86-.01-1.29-.03-.02-.08.03-.11.07-.12.55-.11.27-.35.17-1.43-.3-.03.23,1.09-.45,1.24-.3.07-.53.02-.63-.39s.02-.85,0-1.24c.25-.02.53.22.81.11.22-.08.35-.2.55-.14Z"/>
      <path class="cls-15" d="M126.04,71.24c-.32-.29-.77.12-1.02,0-.28-.14-.5-.15-.78.02.09-.1,0-.17-.11-.27-.05-.05-.15-.23-.19.01-.05.26-.41.13-.63.13-.24,0-.44-.18-.43-.63.4-.15,1.4.16,1.36-.45.17.02.48.23.71.12.32-.15.33-.62.56-.83.58-.36.44,1.55.52,1.89Z"/>
      <path class="cls-15" d="M136.6,69.42c.01.1-.03.26.1.37.06.05.1.07.37.08.61.45-.75,1.72.16,1.46.12-.29.08-.57.3-.77.23.25.09.58.4.76.13-.39-.25-.68-.02-1.13.34.44.17.9.49,1.18-.51.03-1.01.04-1.52.04.06-.33-.36-.16-.53-.29-.6-.45-.3-1.2,0-1.68.11,0,.15-.05.27-.02Z"/>
      <path class="cls-2" d="M137.43,69.58c-.03.05-.04.13,0,.22.02.05.08.13.15,0,.03-.06,0-.15,0-.21-.03-.12.08-.2.15-.07.02.04.07.09.11.08,0,.16,0,.32.13.7.31-.21.21-.48.03-.72.05-.26.31-.09.46-.1,0,.38-.12.82,0,1.24s.33.46.63.39c.68-.15.15-1.27.45-1.24.1,1.08.38,1.32-.17,1.43-.04,0-.09.04-.07.12-.29-.01-.61-.05-.89-.03-.33-.29-.15-.74-.49-1.18-.23.45.15.74.02,1.13-.31-.18-.17-.51-.4-.76-.21.2-.17.48-.3.77-.91.26.45-1.01-.16-1.46-.27-.01-.31-.03-.37-.08-.13-.11-.09-.27-.1-.37.28.07.57.04.83.16Z"/>
      <path class="cls-15" d="M131.84,69.63c-.23.56-.4,1.23.06,1.68-.38-.2-.27.06-.87.11,0-.16.17-.16.23-.13.15.08.15-.28.06-.26-.4.08-.57.15-.93-.05s-.33-.38-.22-.79c.09-.34.53-.62.85-.45.17.09.18.31.32.19.12-.1.2-.17.16-.31.09.04.25,0,.35,0Z"/>
      <path class="cls-15" d="M114.71,69.36c.21.66.13,1.35.23,2.02.17.1-1.28-.12-1.36-.11.14-.67.43-1.34.74-1.95.09.12.29.04.39.04Z"/>
      <path class="cls-15" d="M133.7,69.56c-.33.51-.39,1.2.01,1.68-.15-.04-.38-.05-.52,0,.05-.25,0-.5-.28-.67.08.27.05.37-.16.49-.14.08-.35.11-.54-.03-.25-.18-.1-1.31.44-1.21.15.03.29.24.4.14.11-.09.25-.23.16-.36.14,0,.35,0,.49-.05Z"/>
      <path class="cls-15" d="M122.89,69.49c-.35.27-.34.59-.33,1.03,0,.39.28.61.54.91-.18-.01-.52.13-.7-.01-.14-.11-.42-.08-.58-.26-.55-1.5.33-1.57.3-1.61l-.16-.22c.5-.16-.13.25.93.17Z"/>
      <path class="cls-15" d="M141.86,71.44h-1.15c.33-.35-.12-1.27.36-1.69.13-.12.55-.16.64.12.16.55.09,1.09.15,1.57Z"/>
      <path class="cls-15" d="M127.45,70.02c-.12.42.06.89.28,1.24-.26-.09-.38.18-.64.13.2-.15.11-.28-.16-.19-.19-.01-.55.05-.62-.13-.19-.5-.03-1-.11-1.48.33.39.75.54,1.25.43Z"/>
      <path class="cls-39" d="M133.22,69.62c.09.13-.05.27-.16.36-.12.1-.26-.11-.4-.14-.54-.11-.69,1.02-.44,1.21.19.14.4.11.54.03.21-.12.24-.22.16-.49.27.16.33.42.28.67-.31.2-.63.2-1,.17.05-.11-.09-.15-.17-.11-.05.03-.07.03-.12,0-.47-.45-.29-1.12-.06-1.68.44-.24.96-.32,1.38-.02Z"/>
      <path class="cls-61" d="M112.61,69.16l.65,1.76.69-1.76c.07-.01.17-.12.27-.08.13.04.16.15.1.24-.31.62-.6,1.28-.74,1.95-.13.01-.22.19-.44.16l-.81-2.03c-.04-.1-.32-.12-.17-.3.06-.07.18-.12.31-.05.05.03.06.01.13.1Z"/>
      <path class="cls-41" d="M131.49,69.63c.04.13-.04.21-.16.31-.13.12-.14-.11-.32-.19-.32-.16-.77.11-.85.45-.11.41-.14.58.22.79s.53.12.93.05c.09-.02.09.34-.06.26-.06-.03-.23-.04-.23.13-.3.02-.58.03-.84-.11.06-.1-.04-.12-.08-.16-.06-.07-.23-.03-.26-.09-.23-.34-.18-.99.05-1.36.46-.39,1.06-.3,1.59-.07Z"/>
      <polygon class="cls-15" points="113.95 69.17 113.26 70.92 112.61 69.16 113.95 69.17"/>
      <path class="cls-15" d="M142.55,69.31c.02.17-.19.15-.21.26-.04.19.27.14.3.22.09.48-.01,1.07.15,1.52-.27,0-.52.21-.8.15-.06-.78.38-1.14-.13-1.96.23.06.49-.11.69-.18Z"/>
      <path class="cls-40" d="M140.85,69.44c-.03.14.16.22.16.03.29-.1.57-.07.85,0,.51.82.06,1.19.13,1.96-.04-.01-.09,0-.13,0-.06-.48,0-1.02-.15-1.57-.08-.29-.5-.24-.64-.12-.48.43-.03,1.34-.36,1.69-.04,0-.09,0-.13,0l-.02-1.97c.1-.03.19-.05.29-.03Z"/>
      <path class="cls-56" d="M143.01,69.15c-.05.14.13.3.27.29.07-.07.14,0,.19.07.03.04-.01.12-.06.15-.04.02-.09,0-.14.05.06-.07-.06-.15-.08-.12-.03.05-.19.13-.19.18v.95c0,.16.04.28.09.37.06.1.18.08.28.06.04.05.21.17.12.23-.26.2-.5-.05-.71-.07-.17-.45-.06-1.03-.15-1.52-.03-.08-.34-.03-.3-.22.02-.1.24-.08.21-.26.17-.06.09-.29.19-.32.17-.05.31.03.26.16Z"/>
      <path class="cls-49" d="M121.8,69.15c-.19-.02-.14.17.01.17.05.05.09.02.14,0l.16.22s-.85.11-.3,1.61c.16.18.43.14.58.26-.3.1-.62-.11-.9-.11-.23-1.6.26-1.15-.54-1.8.09-.06.19-.13.29-.06.08.06.22,0,.14-.12.1-.1.04-.25.13-.3.12-.06.28.02.28.13Z"/>
      <path class="cls-15" d="M129.9,69.7c-.23.37-.28,1.02-.05,1.36.04.06.21.02.26.09.04.04.14.06.08.16-1.04-.07-.49.08-1.27.09.38-.48.57-1.12.2-1.65.26-.06.53.09.78-.05Z"/>
      <path class="cls-35" d="M136.33,69.45c-.29.48-.59,1.23,0,1.68.17.13.59-.05.53.29h-.7c.05-.12-.08-.12-.15-.14-.06-.01-.11-.05-.18-.04-.22-.56-.24-1.22-.1-1.8h.6Z"/>
      <path class="cls-34" d="M126.21,69.59c.08.47-.08.98.11,1.48.07.18.43.12.62.13.27-.09.35.04.16.19-.37-.07-.75.14-1.05-.14-.08-.34.06-2.26-.52-1.89.11-.1.19-.18.48-.17.18,0,.12.3.21.41Z"/>
      <path class="cls-15" d="M143.27,69.71c-.05.47-.03.99.1,1.44-.1.02-.22.04-.28-.06-.05-.08-.09-.21-.09-.37v-.95c0-.06.16-.13.19-.18.02-.04.14.04.08.12Z"/>
      <path class="cls-15" d="M137.83,69.6s.11-.07.16-.02c.18.24.28.51-.03.72-.13-.38-.14-.54-.13-.7Z"/>
      <path class="cls-19" d="M140.12,69.45c.02.07.05.16.02.22-.04.08-.15.11-.21.07-.09-.07-.2-.19-.11-.28.09.03.21-.01.3,0Z"/>
      <path class="cls-15" d="M115.85,69.44c.02.08-.02.13-.07.15-.13.04-.24-.03-.21-.15h.28Z"/>
      <path class="cls-15" d="M140.85,69.44s.11.01.16.03c0,.19-.19.11-.16-.03Z"/>
      <path class="cls-15" d="M83.91,69.73c-.05,0-.11,0-.16.02-.02-.18.14-.19.16-.02Z"/>
      <path class="cls-15" d="M80.77,69.16c-.13,0-.26-.13-.29-.26.16-.03.24.14.29.26Z"/>
      <path class="cls-15" d="M134.74,71.44c-.02-.11.06-.17.16-.14.05.13-.08.13-.16.14Z"/>
      <path class="cls-15" d="M134.19,71.43c-.08,0-.22.01-.18-.12.09-.04.22,0,.18.12Z"/>
      <path class="cls-15" d="M132.19,71.42c-.08,0-.22.04-.17-.11.07-.05.22,0,.17.11Z"/>
      <path class="cls-15" d="M136.17,71.42c-.11,0-.18,0-.15-.14.07.01.21.02.15.14Z"/>
      <path class="cls-15" d="M127.93,71.41c-.13-.04-.14-.02-.2-.16.07.03.25.04.2.16Z"/>
      <path class="cls-15" d="M73.94,66.62c-.11.02-.16-.08-.14-.18.06.06.16.07.14.18Z"/>
      <path class="cls-15" d="M124.24,70.06c-.11-.01-.18-.07-.16-.19.13-.06.15.09.16.19Z"/>
      <path class="cls-15" d="M119.28,71.29c-.12-.01-.14-.04-.18-.16.1.02.24.02.18.16Z"/>
      <path class="cls-15" d="M86.76,67.17c-.02-.12.02-.16.12-.14,0,.07-.04.16-.12.14Z"/>
      <path class="cls-15" d="M149.64,111.07c.02-.07.02-.21.14-.15,0,.09,0,.19-.14.15Z"/>
      <path class="cls-15" d="M79.36,69.32c0-.17.24-.41.41-.41-.09.17-.25.33-.41.41Z"/>
      <path class="cls-15" d="M147.81,100.71c-.02-.11.03-.18.14-.13.03.11-.08.09-.14.13Z"/>
      <path class="cls-15" d="M149.49,111.49c.03-.05.01-.16.02-.21,0-.05.05-.09.13-.08.03.06.03.14.02.21s-.1.08-.16.07Z"/>
      <path class="cls-15" d="M121.81,69.32c-.15,0-.2-.19-.01-.17,0,.06.03.11.01.17Z"/>
      <path class="cls-15" d="M143.27,69.43c-.14.02-.32-.14-.27-.29.08.05.26.16.27.29Z"/>
      <path class="cls-15" d="M121.25,69.43c-.02-.09.06-.14.14-.12.07.11-.06.17-.14.12Z"/>
      <path class="cls-15" d="M137.43,69.58s.11-.04.15,0c0,.07.04.16,0,.21-.07.12-.12.04-.15,0-.04-.08-.04-.17,0-.22Z"/>
      <g>
        <path class="cls-51" d="M115.56,69.44c-.03.12.08.2.21.15.05-.02.1-.07.07-.15.15,0,.31.02.46.07.05.13-.04.26-.03.38.01.1.22.29.33.19.2-.18.08-.47.24-.63.55.01,1.26-.17,1.74.17l.12,1.53c.06.17-.14.21-.23.27-.19.13-.27-.1-.39-.11,0-.35.11-.7-.03-1.05l-.88.34c.19.28.3.47.24.72-.18.05-.42.14-.58,0,.04-.11-.13-.14-.15-.34-.02-.21-.16-.01-.21.04-.11.1-.06.2-.06.3-.2.11-.48-.08-.72-.18-.16.06-.18-2.03-.51-1.27.02-.04-.02,1.56.09,1.38-.04.04.03.19-.07.2-.1.01-.2-.02-.26-.05-.1-.68-.02-1.37-.23-2.02.23.01.58.08.86.08Z"/>
        <g>
          <path class="cls-15" d="M118.09,71.3c-.2-.02-.48-.05-.67,0,.06-.24-.05-.44-.24-.72l.88-.34c.14.35.03.7.03,1.05Z"/>
          <path class="cls-15" d="M115.69,71.13c-.12-.05-.31.07-.42.11-.11.18-.07-1.42-.09-1.38.33-.76.35,1.33.51,1.27Z"/>
          <path class="cls-15" d="M116.84,69.45c-.16.16-.04.46-.24.63-.12.1-.32-.09-.33-.19-.01-.12.09-.25.03-.38.19.06.35-.06.54-.06Z"/>
          <path class="cls-15" d="M116.84,71.31c-.08-.07-.33-.05-.43,0,0-.1-.05-.21.06-.3.05-.05.19-.24.21-.04.02.19.2.22.15.34Z"/>
          <path class="cls-74" d="M116.37,70.33c.47,0,.22.38.09.5-.29.29-.52.19-.74-.15-.13-.19-.23-.57.02-.63.13.03.29.27.62.28Z"/>
          <path class="cls-85" d="M117.92,70.2c-.19.05-.75.02-.89-.12-.21-.31.63-.57.9-.39.11.07.23.44-.02.51Z"/>
        </g>
      </g>
      <g>
        <path class="cls-27" d="M135.17,69.58c.46.48.38,1.17,0,1.69-.1-.02-.15.06-.26.02s-.18.03-.16.14c-.18.03-.36-.01-.55,0,.05-.12-.09-.16-.18-.12-.1.05-.2-.05-.3-.07-.4-.47-.34-1.16-.01-1.68.49-.19.98-.21,1.46.02Z"/>
        <path class="cls-15" d="M135.84,71.24c-.22.02-.45.08-.68.03.39-.52.47-1.21,0-1.69.22.1.38-.14.57-.13-.13.57-.12,1.24.1,1.8Z"/>
        <path class="cls-62" d="M134.82,69.77c.3.12.28.61.25.82-.04.24-.28.53-.6.55-.5.02-.68-.45-.67-.78,0-.48.43-.83,1.03-.59Z"/>
      </g>
      <g>
        <path class="cls-5" d="M129.12,69.74c.37.53.18,1.16-.2,1.65-.33,0-.65.12-.99.02.05-.12-.13-.13-.2-.16-.22-.34-.4-.82-.28-1.24.09-.32.46-.56.71-.6.34-.06.88-.05.96.32Z"/>
        <path class="cls-79" d="M128.97,70.3c.44.27.07.63-.07.79-.21.24-.61.24-.78.08-.25-.21-.54-.46-.28-.75.12.35.26.36.24-.06.2.03.6-.25.89-.07Z"/>
        <path class="cls-25" d="M128.71,69.75c.82.24-.83.5-.97.47l.4-.66c.19.19.16.22.35.26.14.03.17-.09.22-.07Z"/>
      </g>
      <g>
        <path class="cls-15" d="M120.95,69.49c.79.65.31.2.54,1.8h-.8c0-.19.06-.39-.1-.57.01.45-.47.53-.78.42-.23-.08-.52-.33-.45-.71.53.02.97.08,1.4,0,.04-.38-.17-.62-.22-.92.11.06.32.04.42-.02Z"/>
        <path class="cls-77" d="M120.54,69.51c.05.3.26.54.22.92-.43.09-.87.03-1.4,0-.07.38.22.63.45.71.31.11.79.03.78-.42.16.17.11.38.1.57-.48.15-.94.22-1.41-.01.06-.14-.08-.14-.18-.16-.26-.49-.09-.99,0-1.52.48-.19.95-.33,1.43-.09Z"/>
        <path class="cls-15" d="M119.11,69.6c-.1.53-.27,1.03,0,1.52-.14-.02-.26.02-.39.02l-.12-1.53h.52Z"/>
        <path class="cls-76" d="M120.42,70.11c-.1.26-.96.22-1.04-.05-.09-.33.36-.38.51-.42.19-.05.66.14.53.47Z"/>
      </g>
      <g>
        <path class="cls-8" d="M124.08,69.87c-.02.12.05.17.16.19.04.61-.96.29-1.36.45,0,.45.19.63.43.63.22,0,.58.14.63-.13.05-.24.14-.07.19-.01.11.1.2.18.11.27-.35.21-.77.18-1.15.15-.26-.3-.53-.52-.54-.91,0-.44-.02-.76.33-1.03.45-.19,1.05-.14,1.19.38Z"/>
        <path class="cls-57" d="M123.85,70.05c-.04.27-.89.22-1,0,0-.27.31-.42.46-.45s.6.06.54.46Z"/>
      </g>
    </g>
    <g>
      <g>
        <path class="cls-73" d="M134.05,104.38c-.6-.1-1.32-.14-1.89-.28-1.07-.25-2.14-.37-3.25-.34l-1.98.06c-1.14.04-2.2.22-3.28.4l-2.26.38c-5.35.91-10.02,4.33-13.38,8.71-2.98,3.89-4.77,8.56-5.15,13.38-.06.75-.16,1.5-.09,2.26.02.22-.03.35.3.47.48.17,2.24.68,1.64,1.29-.34.34-1.43-.28-1.9-.19.1,1.47.25,2.89.64,4.31.49-.03,1.01-.16,1.22.25.12.23-.06.52-.24.57l-.71.21c2.41,7.89,9.37,11.52,16.83,12.99,11.61,2.28,27.66-.05,31.92-13.07-.44-.05-.94-.16-.89-.57.06-.53.76-.35,1.13-.46.38-1.34.54-2.86.59-4.27l-1.34.21c-.14-.02-.27-.13-.31-.25-.25-.69,1.54-.96,1.64-1.17.04-.08-.01-.2,0-.31.11-.81-.07-1.61-.13-2.41-.38-5.24-2.42-10.28-5.49-14.59-.05-.32.57-.44.71-.63,1.24-1.64,1.89-3.54,2.41-5.51.04-.15,0-.31.16-.28-.05,1.85-.61,3.63-1.15,5.39-.12-.06-.12.09-.14.15-.02.06-.04.08,0,.14-.07-.02-.12.03-.13.08,0,.05.01.15-.02.21-.1.2-.23.41-.35.75,4,4.67,5.9,10.36,5.9,16.64.91.06,4.16-.57,3.73.83-.2.67-2.59-.03-3.78.35-.13,1.66-.37,3.26-.75,4.88.76.17,3.95,1.26,3.25,2.17-.17.22-.46.27-.73.1-.89-.54-1.77-.97-2.85-1.19-1.13,3.94-3.44,7.2-6.38,9.83-.17,0-.27.2-.33.31-3.38,2.32-7.09,4.11-11.16,4.81-5.14.88-10.45.81-15.59-.21-2.6-.52-4.96-1.4-7.3-2.64-2.54-1.34-4.53-3.13-6.37-5.27s-3.19-4.2-4.14-6.85c-1.24.18-2.18.82-3.25,1.38-.21.11-.49-.3-.52-.45-.16-.77,2.52-1.79,3.34-1.97-.42-1.62-.73-3.19-.9-4.88-1.09-.14-2.04-.19-3.06-.09-.38.04-.66-.18-.66-.53,0-1.02,3-.51,3.7-.57-.17-3.83.7-7.32,1.93-10.73.11-.3.36-.81.53-1.11,1.24-2.21,2.55-4.41,4.26-6.29,1.51-1.65,3.28-3.02,5.02-4.37.42-.32,1.09-.76,1.55-1.01,5.44-2.91,11.55-4.17,17.76-3.01,2.66.5,5.07,1.35,7.37,2.71.11.06.27.03.23.2-.01.05-.01.06-.09.1.26-.15-.84.08-1.1-.19-.11-.11-.33-.17-.44-.14-.08.03-.13.37-.27.33-1.39-.5-2.67-.8-3.99-1.02Z"/>
        <path class="cls-52" d="M147.2,146.17c-.4.68-1.14,1.02-1.76,1.46-1.47,1.05-2.99,1.87-4.77,2.47-1.08.36-4.08,1.52-4.64.88,4.08-.7,7.78-2.49,11.16-4.81Z"/>
        <path class="cls-52" d="M147.2,146.17c.06-.11.16-.31.33-.31-.11.1-.21.22-.33.31Z"/>
        <path class="cls-50" d="M120.54,148.83c.03-.66-.2.15-.54-.25-.04-.05-.06-.12.09-.23,6.67.71,13.44-.07,19.61-2.9,3.86-1.77,7.07-4.43,9.4-7.96,1.42-2.16,2.49-4.4,2.85-6.83l1.34-.21c-.05,1.41-.21,2.93-.59,4.27-.37.11-1.06-.07-1.13.46-.05.41.45.52.89.57-4.26,13.02-20.31,15.35-31.92,13.07Z"/>
        <path class="cls-63" d="M128.92,103.76c.09,2.6-.03,5.21-.29,7.87-.1,1.02-.19,1.99-.62,2.9-.31-.82-.42-1.53-.52-2.34-.38-2.83-.56-5.6-.55-8.37l1.98-.06Z"/>
        <path class="cls-44" d="M123.65,104.22c.02.68.36,5.43-.47,5.48-.92.06-1.91-4.24-1.79-5.1l2.26-.38Z"/>
        <path class="cls-4" d="M134.05,104.38c.28.65-.77,5.76-1.57,5.31-.67-.38-.51-4.81-.32-5.58.57.13,1.29.17,1.89.28Z"/>
        <path class="cls-69" d="M153.14,126.53c.06.79.24,1.6.13,2.41-.64.11-3.21-.41-3.49-1.04-.27-.59,2.94-1.51,3.36-1.37Z"/>
        <path class="cls-69" d="M102.77,128.95c-.06-.75.03-1.5.09-2.26.53,0,3.41.52,3.38,1.2-.02.6-2.82,1.26-3.47,1.06Z"/>
        <g>
          <path class="cls-26" d="M149.41,101.25c-.09,2.79-1.02,5.57-2.29,8.14-.22.43-.46.78-.82,1.06l-2.46-1.95c-.82-1.35-.76-1.95-.2-3.77-.83-.28-1.18.77-1.73.49.47-1.51,4.34-3.94,5.75-4.53.05,0,.08.05.14.01s.17-.02.14-.13c.16.07.83-.34,1.25.07.17.17.22.38.21.6Z"/>
          <path class="cls-87" d="M143.84,108.51c-.72-.57-1.58-1.01-2.25-1.72-.22-.4.24-1.02.33-1.35.02-.06-.01-.16,0-.2.55.27.9-.77,1.73-.49-.56,1.82-.62,2.42.2,3.77Z"/>
        </g>
        <g>
          <path class="cls-15" d="M145.43,84.91l.07,15.34c.31.09.44-.09.61-.1.02.08.08.3.19.33.48.1.91.21,1.37.22-1.4.59-5.27,3.02-5.75,4.53-.01.04.01.14,0,.2-.09.33-.55.95-.33,1.35.68.71,1.54,1.16,2.25,1.72l2.46,1.95c.36-.28.61-.63.82-1.06,1.27-2.57,2.2-5.35,2.29-8.14.15-.04.12.14.15.27.67.18.92.78,1,1.4.05.35.42.68.41,1.03l-.04,1.57c-.17-.03-.12.13-.16.28-.52,1.97-1.17,3.87-2.41,5.51-.14.19-.76.3-.71.63,3.07,4.3,5.12,9.34,5.49,14.59-.42-.14-3.63.78-3.36,1.37.28.63,2.85,1.15,3.49,1.04-.01.11.04.22,0,.31-.1.21-1.89.48-1.64,1.17.04.12.17.23.31.25-.36,2.42-1.43,4.67-2.85,6.83-2.33,3.53-5.54,6.19-9.4,7.96-6.17,2.83-12.95,3.61-19.61,2.9-.15.11-.13.18-.09.23.34.39.58-.41.54.25-7.46-1.46-14.42-5.09-16.83-12.99l.71-.21c.19-.05.36-.34.24-.57-.21-.4-.74-.28-1.22-.25-.39-1.42-.54-2.84-.64-4.31.47-.09,1.56.53,1.9.19.61-.61-1.16-1.11-1.64-1.29-.33-.12-.28-.25-.3-.47.66.21,3.45-.46,3.47-1.06.02-.68-2.85-1.2-3.38-1.2.38-4.82,2.16-9.49,5.15-13.38,3.36-4.38,8.04-7.8,13.38-8.71-.13.86.87,5.16,1.79,5.1.83-.05.49-4.8.47-5.48,1.08-.18,2.14-.36,3.28-.4,0,2.77.17,5.54.55,8.37.11.8.22,1.52.52,2.34.43-.91.52-1.87.62-2.9.26-2.66.38-5.27.29-7.87,1.11-.03,2.18.09,3.25.34-.19.78-.35,5.2.32,5.58.8.46,1.85-4.66,1.57-5.31,1.32.22,2.6.52,3.99,1.02.13.05.18-.3.27-.33.11-.03.33.02.44.14.26.27,1.36.03,1.1.19.07-.04.08-.05.09-.1.04-.17-.12-.14-.23-.2-2.31-1.36-4.71-2.22-7.37-2.71-6.2-1.16-12.32.1-17.76,3.01-1.03-1.46-2.57-2.64-4.12-3.55-.7-.65-3.16-2.05-3.94-1.33-.19.18-.36.55-.39.92-.24,3.13.38,6.24,1.57,9.11.07.16.18.24.31.24-1.72,1.88-3.02,4.07-4.26,6.29l-32.03-.06c-.49,0-.83-.02-1.16-.21-.97-.55-.76-3.63-.73-3.44l-.15-.84-.03-1.97c-.03-1.72,0-3.3,0-5.03l-.02-13.31c0-2.88-.09-4.32.07-7.26l57.66-.05,18.09.03Z"/>
          <g>
            <g>
              <path class="cls-23" d="M146.24,138.42c-1.12,1.07-2.74,1.03-3.87.07-1.79-1.52-1.8-4.43.04-5.93,1.19-.98,2.73-.84,3.81.15,1.61,1.49,1.68,4.12.02,5.7Z"/>
              <path class="cls-42" d="M114.34,138.46c-1.17,1.03-2.77.96-3.87-.05-1.72-1.58-1.54-4.53.37-5.92,1.1-.8,2.39-.79,3.46.07,1.85,1.49,1.85,4.3.04,5.9Z"/>
              <path class="cls-89" d="M117.74,125.62c-1.54-.42-2.91.29-3.81,1.42-.19.24-.47.4-.72.26-1.01-.57.97-3.12,3.7-3.15s4.6,2.33,3.93,3.01-1.12-1-3.11-1.54Z"/>
              <path class="cls-17" d="M143.29,126.49c-.75.95-1.12-1.54-3.93-1.46-2.43.07-3.1,2.14-3.71,1.98-1.22-.32.72-3.21,3.44-3.37s4.69,2.23,4.2,2.85Z"/>
              <g>
                <path class="cls-66" d="M131.73,133.24c-.18.05-.34-.1-.55-.18-1.62-.66-1.91,1.84-2.41,2.58-.28.08-.49.21-.81.02-.18-.1-.34-.31-.44-.56-.39-1.02-.52-1.88-1.51-2.08-.45-.09-.73.24-1.06.5-.2,0-.24-.29-.44-.32-.19-.43,0-.85,0-1.26.37-.27.71-.68,1.28-.74,1.67-.19,3.32-.21,4.93-.06.56.05.94.37,1.17.72.37.58,0,.93-.16,1.38Z"/>
                <path class="cls-10" d="M128.93,135.94c.19.04.2-.1.28-.15.78-.45,2.16-1.6,2.51-2.55.16-.44.53-.79.16-1.38-.22-.35-.61-.67-1.17-.72-1.61-.16-3.26-.13-4.93.06-.57.06-.91.48-1.28.74,0-.82.66-1.5,1.54-1.62,1.52-.22,3.08-.21,4.6,0,.9.12,1.48.73,1.71,1.61.2.77.39,1.49.31,2.27-.17,1.59-1.46,2.58-3.05,2.4-.23-.03-.5.11-.65-.12-.09-.15-.01-.36-.03-.56Z"/>
                <path class="cls-36" d="M128.76,135.64l.45.15c-.08.05-.09.19-.28.15-.31-.07-.37,2.13.5,3,.69.68,1.66.89,2.65.7,1.94-.38,2.04-2.1,2.41-1.67.43.49-.91,2.07-2.78,2.31-1.39.18-2.64-.59-3.29-1.86-.4.64-.69,1.11-1.28,1.45-1.65.93-3.84.3-4.81-1.31-.09-.15-.05-.3-.11-.39-.06-.07.25-.28.29-.2.76,1.36,2.29,2.05,3.86,1.6,1.74-.5,1.68-2.05,1.7-3.34l-.86-.61.31-.51c.09.25.26.46.44.56.32.19.53.06.81-.02Z"/>
                <path class="cls-60" d="M124.51,133.21c.19.03.23.32.44.32.57.84,1.44,1.5,2.25,2.08l.86.61c-.9.55-2.02.56-2.9-.07-1.44-1.02-1.15-3.42-.65-2.95Z"/>
                <path class="cls-84" d="M131.73,133.24c-.35.95-1.73,2.09-2.51,2.55l-.45-.15c.5-.75.79-3.24,2.41-2.58.21.09.38.23.55.18Z"/>
                <path class="cls-54" d="M127.51,135.1l-.31.51c-.82-.58-1.69-1.25-2.25-2.08.32-.26.61-.59,1.06-.5.99.2,1.12,1.05,1.51,2.08Z"/>
              </g>
            </g>
            <g>
              <path class="cls-14" d="M119.56,90.4c.67,0,.84.53.89.85s-.28,1.01-.76,1.01l-45.49-.02c-.41,0-.7-.59-.74-.87-.05-.37.19-.95.79-.95l45.3-.03Z"/>
              <path class="cls-24" d="M103.38,101.48h-29.26c-.45,0-.63-.39-.6-.69.03-.33.29-.52.73-.52h29.07c.43,0,.7.21.72.51s-.11.7-.67.7Z"/>
              <path class="cls-33" d="M73.94,105.1l16.06-.14c.5,0,.69.73.72,1.05.03.3-.14.95-.61,1.07h-15.86c-.52,0-.75-.63-.78-.93-.04-.38.08-.92.48-1.06Z"/>
              <path class="cls-9" d="M120.53,95.8h-47s47,0,47,0Z"/>
              <path class="cls-64" d="M90,104.96l-16.06.14c-.06-.08.02-.14.16-.14h15.9Z"/>
              <g>
                <path class="cls-32" d="M135.43,88.31c-.06.08-.12.2-.26.17-.45-.1-.92-.06-1.37-.1-1.05-.08-2.11-.06-3.16-.03-.16,0-.39.24-.41.45-.06.98-.04,1.92-.04,2.93,0,1.08,2.94.41,3.71.46.04.18,2.45.17,2.27-.1.42.1,1.21.19,1.41-.36.26-.7.25-3.36-.39-3.27.04-.05.07-.11.13-.14.33.16.67.3.67.87v2.25c.02.83-.68,1.11-1.41,1.12l-5.83.03c-1.23,0-.79-1.75-.87-3.55-.02-.4.15-.72.39-.88.28-.19.57-.14.92-.14l2.98.04c.47,0,.9.04,1.26.24Z"/>
                <path class="cls-48" d="M137.32,88.34c-.06.03-.09.09-.13.14-.4.06-1.14-.13-1.48.26-.61.69-.67,1.91-.44,2.75.11.38.65.47.9.62.18.26-2.23.28-2.27.1,1.42-1.4.83-1.15,1.18-2.54.11-.43.13-.81.09-1.18.14.03.21-.09.26-.17.59-.18,1.34-.25,1.89.02Z"/>
                <path class="cls-78" d="M133.8,88.39c.46.04.92,0,1.37.1.04.37.01.75-.09,1.18-.34,1.39.24,1.14-1.18,2.54-.77-.05-3.7.62-3.71-.46,0-1.01-.02-1.96.04-2.93.01-.21.25-.45.41-.45.04.79-.19,1.67.23,2.49.51-.55.48-1.4,1.07-1.62l1.57-.57c.09-.03.19-.01.25-.07.07-.06.14-.12.05-.2Z"/>
                <path class="cls-15" d="M137.19,88.48c.64-.09.65,2.57.39,3.27-.2.55-1,.45-1.41.36-.25-.15-.79-.23-.9-.62-.23-.85-.17-2.06.44-2.75.34-.39,1.08-.2,1.48-.26Z"/>
                <path class="cls-81" d="M133.8,88.39c.1.08.03.13-.05.2-.07.06-.16.04-.25.07l-1.57.57c-.59.22-.56,1.07-1.07,1.62-.41-.82-.19-1.7-.23-2.49,1.05-.03,2.11-.05,3.16.03Z"/>
              </g>
            </g>
          </g>
        </g>
      </g>
      <g>
        <path class="cls-86" d="M103.73,117.06c-.17.3-.42.81-.53,1.11l-31.08.05c-.91,0-1.79-.67-1.58-1.43.33.19.67.21,1.16.21l32.03.06Z"/>
        <path class="cls-70" d="M146.11,100.15c-.17.01-.3.19-.61.1l-.07-15.34.1-3.93c.33,0,.63.49.64.99l.04,17.15-.1,1.03Z"/>
        <g>
          <path class="cls-46" d="M110.45,101.84c1.16,1.06,2.45,2.29,2.8,4.08.04.19-.32.32-.23.48-1.74,1.35-3.51,2.72-5.02,4.37-.12,0-.24-.08-.31-.24-1.2-2.87-1.81-5.97-1.57-9.11.03-.37.2-.74.39-.92.78-.72,3.23.68,3.94,1.33Z"/>
          <path class="cls-31" d="M114.57,105.39c-.46.25-1.13.68-1.55,1.01-.1-.16.27-.29.23-.48-.35-1.78-1.65-3.02-2.8-4.08,1.55.91,3.09,2.09,4.12,3.55Z"/>
        </g>
        <g>
          <path class="cls-21" d="M145.54,80.98l-.1,3.93-18.09-.03-57.66.05c.08-1.48-1.06-5.8,2.04-5.8l71.94-.02c1.25,0,1.91.9,1.89,1.88Z"/>
          <path class="cls-59" d="M72.67,81.35c.45-.27.93.03,1.09.39.18.42.04.88-.41,1.1-.34.17-.81.04-1.02-.34s-.11-.89.33-1.15Z"/>
          <path class="cls-15" d="M78.08,81.32c.44-.09.84.34.88.7.04.41-.29.8-.68.87-.42.08-.78-.26-.86-.6-.11-.46.16-.87.66-.97Z"/>
          <path class="cls-15" d="M75.5,81.44c.43-.24.86-.07,1.05.33.16.35.05.77-.4,1.03-.28.16-.66.06-.9-.23-.28-.34-.21-.86.25-1.12Z"/>
          <path class="cls-59" d="M80.66,81.44c.39-.14.76.06.89.44s-.06.78-.54.97c-.27.11-.68-.09-.85-.53-.13-.33.06-.72.51-.88Z"/>
          <g>
            <path class="cls-6" d="M143.44,84.01h-17.74c-.26,0-.64-.11-.7-.4-.23-1.05-.46-2.1-.38-3.29h19.2c.24-.01.42.06.54.16.25.2-.01,2.24-.09,2.75-.06.41-.21.78-.82.78Z"/>
            <path class="cls-47" d="M131.95,82.9c-.69-.17-.51-1.25-.02-1.44.4-.16.75.3.83.6.09.35-.21,1-.81.85Z"/>
          </g>
        </g>
      </g>
    </g>
    <g>
      <g>
        <path class="cls-58" d="M186.46,180.52c-1.16,1.4-2.67,1.75-4.7,1.74l-12.2-.02c-1.2,0-2.26-.07-3.43-.05-.56,0-1.17-.14-1.66-.26-1.04-.24-2.69-1.55-2.77-2.64-.03-.08-.22-.16-.24-.26-.02-.13.13-.36.13-.5-.12.89-.38-2.4-.38-1.58v-16.16c.13-.16.23-.17.24-.24.03-.16-.03-.34-.09-.47-.2-.44.17-.83.14-1.1-.05-.65.26-1.1.6-1.63.95-1.49,2.71-2.12,4.46-2.1l6.25.06c1.44.01,2.82.12,4.27.02,1.06-.08,5.79-.1,6.56.04,3.48.63,3.84,3.16,3.86,6.16l.07,15.02c0,.36-.35.77-.2,1.16.2.54-.08.91-.18,1.37-.16.72-.33.98-.71,1.44Z"/>
        <path class="cls-15" d="M168.45,168.98c-.36-.55-.12-1.18.31-1.47.57-.38,1.24-.17,1.63.39l2.73,3.95c2.46-3.2,5.38-7.09,8.43-9.55.32-.26.76-.31,1.07-.15.37.19.58.54.42,1.1-3.29,3.58-6.25,7.3-9.09,11.19-.24.33-.59.51-.93.51s-.73-.16-.96-.5l-3.61-5.46Z"/>
      </g>
      <g>
        <g>
          <path class="cls-15" d="M181.33,138.74c-.46.87.23.14-.32,1.58-.32-.16-.72-.17-1.08.07-2.45,1.67-5.49,2.2-8.41,1.32-3.08-.94-5.2-3.59-5.62-6.78s.99-6.49,3.74-8.23c1.62-1.03,3.34-1.45,5.17-1.37,4.55.22,8.11,3.98,7.52,8.61-.3,2.37-2.55,4.08-3.71,3.32-.35-.23-.54-.73-.48-1.2l.88-6.8c.05-.36.08-.66-.15-.9-.18-.2-.48-.26-.82-.28-.61-.03-1.01.21-1.26.92-1.61-1.6-4.11-1.22-5.73.22-1.79,1.59-2.54,4.05-2.1,6.43.25,1.36,1.05,2.32,2.19,3.11s2.76.58,3.87-.32c.36-.3.48-.84,1-.93.09.92.55,1.64,1.52,1.84,1.11.23,2.79.17,3.78-.6Z"/>
          <g>
            <path class="cls-65" d="M181.33,138.74c-.99.77-2.67.84-3.78.6-.97-.2-1.43-.93-1.52-1.84-.52.09-.64.63-1,.93-1.1.91-2.76,1.09-3.87.32s-1.93-1.75-2.19-3.11c-.44-2.38.31-4.83,2.1-6.43,1.62-1.44,4.11-1.83,5.73-.22.25-.71.66-.95,1.26-.92.34.02.64.08.82.28.23.24.19.55.15.9l-.88,6.8c-.06.48.13.98.48,1.2,1.16.76,3.41-.95,3.71-3.32.59-4.62-2.98-8.39-7.52-8.61-1.82-.09-3.55.34-5.17,1.37-2.76,1.74-4.18,4.94-3.74,8.23s2.54,5.84,5.62,6.78c2.92.89,5.96.36,8.41-1.32.36-.24.75-.23,1.08-.07.06.27.39.49.26.87-.15.44-.52.84-.93,1.16-3.59,2.87-10.02,2.52-13.37-1.16-3.04-3.35-3.9-8.02-1.8-12.08s6.36-5.97,10.75-5.38c4.72.64,8.24,4.42,8.31,9.2.03,2.38-1.09,4.38-2.9,5.8Z"/>
            <path class="cls-15" d="M174,136.88c-1.01.44-2.08.02-2.47-.98-1.08-2.71.87-6.37,3.14-6.1.92.11,1.67.93,1.54,1.87.19,1.81-.25,4.36-2.21,5.21Z"/>
          </g>
        </g>
        <g>
          <path class="cls-11" d="M179.92,79.94c-.31.03-.75,0-1.15-.08-3.56-.65-7.02-.3-9.9,1.97-1.94,1.53-3.35,3.44-4.09,5.76-.26.83-.24,1.68-.59,2.47-.2-1.85-.03-3.42.94-4.88.2-.31.1-.67-.11-.94,2.16-3.64,6.14-5.81,10.49-5.5,1.59.11,3.15.4,4.41,1.2Z"/>
          <path class="cls-13" d="M183.7,97.31c-.37.9-1.14,1.54-1.93,2.3-1.22,1.17-2.83,1.86-4.42,2.3-.2.06-.32.18-.5.2-.15.02-.37-.18-.42-.1-.12.19-.36.23-.52.11-.79.36-1.59.25-2.41.04.75.2-2.21-.13-1.94-.57-.29.38-.4.11-.56.05-2.28-.8-4.3-2.26-5.69-4.4-.57-.89-1.13-1.77-1.18-2.8,1.96,4.19,5.84,6.99,10.66,6.99,3.5,0,6.63-1.62,8.89-4.13Z"/>
          <g>
            <path class="cls-28" d="M179.92,79.94c5.28,2.43,7.62,8.89,5.53,14.36-.24.63-.7,1.11-.85,1.7-.12-.08-.13.07-.16.14-.03.07-.03.07,0,.14-.14.03-.22.17-.28.28-.03.06-.06.08,0,.14-.1-.02-.13.06-.11.14-.26.01-.27.3-.33.44-2.26,2.51-5.39,4.13-8.89,4.13-4.82,0-8.7-2.79-10.66-6.99-.01-.28-.07-.63-.26-.85-.91-3.19-.57-6.5,1.13-9.35.21.26.32.63.11.94-.97,1.46-1.14,3.03-.94,4.88.35-.8.33-1.64.59-2.47.73-2.33,2.15-4.24,4.09-5.76,2.88-2.27,6.34-2.61,9.9-1.97.4.07.84.11,1.15.08Z"/>
            <path class="cls-13" d="M183.7,97.31c.06-.14.07-.43.33-.44.11.27-.19.37-.33.44Z"/>
            <path class="cls-13" d="M184.03,96.86c-.02-.08.02-.16.11-.14.07.09-.02.16-.11.14Z"/>
            <path class="cls-13" d="M184.43,96.15c.03-.07.05-.22.16-.14-.02.09-.04.18-.16.14Z"/>
            <path class="cls-13" d="M184.15,96.58c.06-.11.14-.26.28-.28.04.14-.15.29-.28.28Z"/>
            <path class="cls-13" d="M164.14,94.45c-.13-.28-.18-.57-.26-.85.18.22.24.57.26.85Z"/>
            <g>
              <path class="cls-15" d="M177.82,87.45c-.05,1.54-.98,4.3-.49,4.64.59.41,2.32-1.36,1.77-3.86-.29-1.35-1.32-2.31-2.73-2.47-2.85-.3-5.14,1.88-5.17,4.72-.02,1.57.68,3.1,2.15,3.74,1.8.79,3.87.42,5.44-.75.23-.17.75.29.6.45-1.36,1.43-3.38,1.83-5.3,1.52-2.23-.35-3.78-2.02-3.99-4.28-.34-3.59,2.68-6.58,6.21-6.33,2.58.18,4.3,2.34,3.89,4.94-.22,1.41-1.02,2.76-2.39,3.23-.81.28-1.64,0-1.88-.82-.82.86-1.75,1.26-2.75.73-.42-.22-.78-.7-.89-1.31-.32-1.77.54-3.61,2.22-4.27.79-.31,1.59-.2,2.06.42.16-.33.26-.51.46-.5.25.01.81-.13.8.19Z"/>
              <path class="cls-82" d="M176.21,88.52c.34,1.13-.34,3.78-1.78,3.65-1.08-.09-1.24-2.53.23-3.82.42-.37,1.36-.45,1.54.17Z"/>
            </g>
          </g>
        </g>
      </g>
    </g>
    <g>
      <path class="cls-88" d="M76.63,161.59c.19-.43.16-1.01.16-1.51,2.38.18,4.78-.1,7.23,0l1.71.07c.91.04,1.77-.15,2.7,0-.1-.02,1.63.07,1.78-.55.04-.19.17-.38.28-.54.19.2.28.34.38.29.13-.06.27-.16.26-.28.59.22,1.23.25,1.84-.12.15.2-.03.34-.02.48,0,.07.06.1.17.1.15,0,.3.07.44-.06.08-.08.1-.39.31-.37s.44.63.66.29c.11-.18.16-.54.41-.59,0,.07,0,.21.07.24.04.01.15-.16.21-.11.68.46,1.93.06,1.79.19.22-.2.49-3.32-.3-3.35.09-.09.09-.22.19-.31.51.24.88.82.88,1.36l.02,4.55c0,.52-.46,1.03-1.04,1.03h-18.99c-.6.01-1.12-.28-1.17-.79Z"/>
      <path class="cls-30" d="M96.93,155.44c-.1.08-.11.22-.19.31-1.17-.04-2.37-.17-3.61-.04-.74.08-1.4-.02-2.15-.02h-11.33s-2.29.09-2.29.09c-.44.02-.58.54-.58.87l.02,3.43c0,.5.03,1.07-.16,1.51-.14-.15-.26-.38-.26-.67l.05-4.55c0-.46.41-1.03.94-1.03h15.74c.9.02,1.7.09,2.58.03.46-.03.87-.1,1.25.07Z"/>
      <path class="cls-6" d="M94.96,158.78c-.26.05-.3.41-.41.59-.21.34-.44-.28-.66-.29s-.23.3-.31.37c-.14.13-.29.06-.44.06l.04-.63c-.29.02-.43-.08-.57-.2-.2-.16.19-.35.17-.5-.03-.21-.16-.47.04-.61.24-.16.47-.01.78.18.07-.27-.05-.38,0-.49.07-.16.23-.23.34-.19.46.15-.03,1.04.61.56.24-.18.34,0,.39.1.2.4-.33.09.02,1.04Z"/>
      <g>
        <path class="cls-72" d="M96.74,155.75c.79.03.52,3.14.3,3.35.14-.12-1.1.27-1.79-.19-.07-.05-.18.13-.21.11-.07-.03-.07-.17-.07-.24-.35-.96.18-.64-.02-1.04-.05-.11-.15-.28-.39-.1-.64.48-.15-.41-.61-.56-.11-.04-.27.03-.34.19-.05.11.07.21,0,.49-.31-.19-.54-.34-.78-.18-.2.14-.08.4-.04.61.02.15-.37.34-.17.5.15.11.28.21.57.2l-.04.63c-.12,0-.17-.03-.17-.1,0-.14.17-.28.02-.48-.62.37-1.26.35-1.84.12-.07-.17-.3-.22-.32-.45.16-.05.33,0,.4-.06s.08-.22.03-.27-.3-.06-.28-.19c.02-.16.21-.23.19-.34-.01-.06-.12-.14-.22-.15-.22-.03-.24.45-.47.23-.12-.12.02-.59-.26-.58s-.13.5-.29.57c-.21.09-.3-.29-.51-.22-.08.03-.13.09-.14.14-.02.06.09.17.14.31.03.12-.28.16-.28.27,0,.11-.04.29.12.34,0-.26.17-.28.3-.23.34.13-.5.51,0,.9.22-.07.24-.35.42-.37.1.27.03.55.24.63-.14.62-1.88.54-1.78.55-.93-.15-1.79.03-2.7,0l-1.71-.07c-2.46-.1-4.86.19-7.23,0l-.02-3.43c0-.33.14-.86.58-.87l2.29-.08h11.33c.75,0,1.42.09,2.15.01,1.24-.14,2.44,0,3.61.04Z"/>
        <path class="cls-3" d="M91.14,159.07c.02.12-.13.22-.26.28-.1.05-.2-.09-.38-.29-.11.16-.24.36-.28.54-.22-.08-.14-.36-.24-.63-.18.02-.2.3-.42.37-.49-.4.34-.77,0-.9-.14-.05-.3-.03-.3.23-.16-.05-.12-.23-.12-.34,0-.1.31-.15.28-.27-.04-.15-.16-.25-.14-.31.02-.05.07-.11.14-.14.22-.07.3.32.51.22.16-.07.02-.56.29-.57s.14.47.26.58c.22.22.25-.26.47-.23.1.01.2.09.22.15.03.12-.17.18-.19.34-.02.14.23.15.28.19s.04.21-.03.27-.24.01-.4.06c.01.23.24.28.32.45Z"/>
        <path class="cls-22" d="M83.27,159.13l-.31.17c-.09.05-.21-.05-.26-.11-.13-.18.08-.51.26-.54.06,0,.1-.07.03-.16-.03-.05-.07-.06-.22-.05-.09-.02-.26-.08-.23-.13.04-.05.15-.14.2-.24.05-.1-.09-.17-.09-.21,0-.06.13-.21.19-.16.09.08.12.14.19.19.19.13.22-.3.5-.49.09-.06.33-.01.34.15l.02.38c.24-.07.29-.27.35-.25.11.04.17.15.22.2-.55-.49.52,1.13-.31,1.45-.09.04-.2-.3-.33-.23-.09.04-.13.2-.24.35-.13-.04-.15-.42-.3-.33Z"/>
        <path class="cls-71" d="M86.64,159.12c-.08-.12-.27.14-.36.14-.17-.01-.29-.16-.26-.27.06-.2.23-.3.44-.39-.22-.2-.5-.13-.78-.33.14-.15.39-.12.31-.29-.06-.12-.13-.19-.09-.25.06-.09.2-.15.33,0s.24.19.3.15c.21-.13-.03-.57.27-.57s.1.41.29.53c.13.08.19-.09.32-.18.12-.09.2.02.25.07.1.1.08.23,0,.4.09.16.16.24.1.27-.09.05-.23.08-.3.1.31.17.33.32.21.6-.1.24-.27.07-.53.12-.07.08-.13.25-.21.24-.1-.02-.12-.07-.29-.31Z"/>
        <path class="cls-67" d="M80.39,159.44c-.18-.1-.11-.37-.33-.4-.16.04-.15.22-.21.29-.07.08-.19-.02-.27-.09-.06-.06.12-.29-.17-.31-.14-.2.13-.06.17-.11.27-.33-.37-.2-.32-.52.02-.12.15-.17.37-.25-.05-.19-.07-.16-.1-.21-.08-.11.03-.34.27-.17.05.04-.05.2.01.26.03.03.1-.01.23,0,.08,0,0-.09.02-.27.07-.14.11-.24.21-.28s.16.03.25.13c.06.07-.04.15,0,.29.26.2.42.03.25-.27.27-.16.27.18.4.35.08.1-.09.19-.14.36.41.15.33.3-.06.43.17.12.27.15.14.31-.09.11-.05.41-.26.3-.11-.06-.11-.21-.16-.21-.15,0-.25.11-.3.37Z"/>
      </g>
    </g>
  </g>
</svg>