<?xml version="1.0" encoding="UTF-8"?>
<svg id="Layer_3" data-name="Layer 3" xmlns="http://www.w3.org/2000/svg" viewBox="0 0 256 256">
  <defs>
    <style>
      .cls-1 {
        fill: #28395e;
      }

      .cls-2 {
        fill: #f7e3eb;
      }

      .cls-3 {
        fill: #e3e6f1;
      }

      .cls-4 {
        fill: #304368;
      }

      .cls-5 {
        fill: #27385e;
      }

      .cls-6 {
        fill: #c8d4ed;
      }

      .cls-7 {
        fill: #fff;
      }

      .cls-8 {
        fill: #e5e9f1;
      }

      .cls-9 {
        fill: #fc8ba4;
      }

      .cls-10 {
        fill: #5d73a1;
      }

      .cls-11 {
        fill: #415781;
      }

      .cls-12 {
        fill: #374a72;
      }

      .cls-13 {
        fill: #e1e6f1;
      }

      .cls-14 {
        fill: #cfdef5;
      }

      .cls-15 {
        fill: #b0bcd6;
      }

      .cls-16 {
        fill: #fdb7c4;
      }

      .cls-17 {
        fill: #3f547f;
      }

      .cls-18 {
        fill: #7c96c3;
      }

      .cls-19 {
        fill: #cfd7e7;
      }

      .cls-20 {
        fill: #ece8f0;
      }

      .cls-21 {
        fill: #455b86;
      }

      .cls-22 {
        fill: #c6d0e5;
      }

      .cls-23 {
        fill: #fdfeff;
      }

      .cls-24 {
        fill: #566c99;
      }

      .cls-25 {
        fill: #8da2cc;
      }

      .cls-26 {
        fill: #7689bb;
      }

      .cls-27 {
        fill: #8296c8;
      }

      .cls-28 {
        fill: #e1e7f1;
      }

      .cls-29 {
        fill: #fcbdc8;
      }

      .cls-30 {
        fill: #f4cad6;
      }

      .cls-31 {
        fill: #fdfdfe;
      }

      .cls-32 {
        fill: #3c4f77;
      }

      .cls-33 {
        fill: #fdb8c4;
      }

      .cls-34 {
        fill: #fefeff;
      }

      .cls-35 {
        fill: #cfd6e7;
      }

      .cls-36 {
        fill: #e4e9f2;
      }

      .cls-37 {
        fill: #556b98;
      }

      .cls-38 {
        fill: #677ba6;
      }

      .cls-39 {
        fill: #3d5078;
      }

      .cls-40 {
        fill: #e5e9f2;
      }

      .cls-41 {
        fill: #ecf0f7;
      }

      .cls-42 {
        fill: #cfddf5;
      }

      .cls-43 {
        fill: #fefefe;
      }

      .cls-44 {
        fill: #7178a0;
      }

      .cls-45 {
        fill: #92a3ce;
      }

      .cls-46 {
        fill: #feffff;
      }

      .cls-47 {
        fill: #fdfefe;
      }

      .cls-48 {
        fill: #28385c;
      }

      .cls-49 {
        fill: #20335d;
      }

      .cls-50 {
        fill: #29395d;
      }

      .cls-51 {
        fill: #98aed3;
      }
    </style>
  </defs>
  <g id="Generative_Object" data-name="Generative Object">
    <path class="cls-8" d="M177.45,184.12l-12.8-1.08c-.27,2.67-.5,5.22-1.29,7.58-.63,1.9-2.12,3.56-3.33,5.11-.09.12-.06.16.04.15-.89.34-1.55,1.15-2.57,1.47-1.44.45-5.67.82-4.71-.35,3.62-4.39,5.69-11.76,6.32-17.09-.28.22-.29.38-.57.46.04.1.21.27.19.4-.02.2-.09.35-.3.47-.07.08.1.23.1.34,0,.17-.13.47-.38.55.2.43.14,1.32-.33,1.56-.09.05.04.28,0,.4-.05.16-.26.24-.43.14.3-1.45,1.59-7.33.28-8.48-.31-.27-.77-.39-1.32-.32-12.31,1.44-24.96-1.21-35.04-8.4.58-.94.98-2.04,1.78-2.91-.35-.49-.72-.57-1.08-.8-1.47-.95-2.77-2.08-3.91-3.34-.02-.14.04-.27.18-.35.12-.08.25.02.45.17,3.03,2.2,6.31,3.62,9.96,4.56,6.79,1.75,13.73,1.74,20.44-.16,6.19-1.75,11.67-5.25,14.65-11.07-.32-.37-.73-.24-1.16-.44.46-.28.91,0,1.46-.03.21-.56.42-1.05.58-1.75l-4.38-.18c1.45-.26,3.25-.49,4.98-.36.3-.17.05-.36-.37-.34,1.06-6.89-1.45-13.97-5.56-19.51-.17-.23-.27-.48-.14-.69.1-.16.38-.03.56-.06.08.24.28.38.52.6,1.81,1.61,3.51,3.31,4.92,5.21.72.98,1.63,2.21,2.13,3.31,1.65,3.61,2.98,7.38,2.68,11.6.32.18,5.61,1.1,4.59,1.54-1.55-.52-2.97-.81-4.6-1.04-.15,1.23-.43,2.29-.74,3.38.83.78,1.9.48,2.97,1.72l-3.07-1.31c-.55.63-.62,1.77-1.07,2.48-1.57,2.34-3.29,4.49-5.72,6.26l20.56-.02c2.22,0,4.16-1.83,4.16-4.15l.02-79.13c0-2.66-1.97-4.56-4.6-4.56l-60.82.03-57.13-.02c-3.11,0-4.85,2.39-4.85,5.33v78.34c0,2.43,1.63,4.16,4.05,4.17l41.54.14-3.11,19.72c-.33-.09-.15.46-.26.67-.44.02-2.36.06-2.53-.11-.76-.78,2.43-.74,2.38-1.46-.04-.55-5.79-.08-6.65,0l-19.13,1.86c-.1-.23-.04-.55-.07-.64-1.4-.3-2.34-1.15-3.4-1.86-8.36-5.6-14.88-12.7-20.01-21.66l-1.11-1.94c-.39-.68-1.61-3.34-1.83-3.71-.36-.59-.45-1.3-.75-1.95-.72-1.52-1.24-3.08-1.77-4.71-.15-.48-.23-1-.39-1.5l-.43-1.27c.21.63-.92-3.09-.45-2.4-.43.05-.38-1.65-.74-2.72-.48-1.42-.46-3.02-.82-4.57-.03-.14.22-.34.22-.49,0-.21-.16-.24-.32-.51-.24-.41.27-.93.03-1.29-.49-.72-.24-1.46-.24-2.19l-.02-7.62-.05-2.6.22-1.49c.18-1.24.1-1.95.42-3.71-.06.31.05-1.69.36-2.64.14-.42,0-.92.13-1.49l.86-3.74c.07-.32-.29-.88.43-1.06-.35-.35-.17-.55.03-.75-.41.44,1.89-7.42,2.08-7.9l.94-2.48c.31-.82.68-1.7,1.01-2.54l1.33-3.33c.42-1.04.98-1.98,1.48-3l1.15-2.33,2.35-3.97c.2-.33.41-.55.63-.89,2.74-4.31,5.92-8.09,9.74-11.56.4-.37.73-.48,1.06-.88.71-.86,5.99-4.69,7.26-5.43,3.13-1.83,6.38-3.44,9.86-4.64,5.35-1.84,5.12-1.63,10.75-2.75.78-.16,1.46.11,2.26-.29.92-.46,2.27.13,3.35-.18.6-.17,1-.14,1.58-.15l2.6-.04c.42,0,.83.09,1.32.2,1.17.24,2.33-.15,3.53.02-.42.39,2.98.47,2.53.39l3.15.54c.71.12,1.43.19,2.12.36l1.72.44c.87.22,2.05.34,3.27.72l3.91,1.22,3.39,1.26c1.81.67,3.46,1.46,5.3,2.21l5.27,2.15.84.31,6.62,2.22c.37.13,3.06.81,3.54.95,2.29.62,4.18.77,6.23,1.48.76-.13,1.47.18,2.29.31,1.62.27,5.01.29,6.77.14,3.07-.25,5.62-1.64,7.65-3.83,1.82-1.96,4.22-2.91,6.82-3.03,1.99-.09,4.74,1.02,6.56,2.06,4.28,2.44,7.92,5.7,10.63,9.89.51.79.92,1.56,1.35,2.31.27.48.24,1.13.48,1.45.44.58.52,1.12.32,1.74-.04.18.38.4.35.66-.05.35-.13.56-.41.88.57-.65-.64,4.67-6.79,3.96-.73.64,1.64,1.58,2.59,2.64.37.42.71.63,1.13.96,4.07,3.33,7.52,9.13,9.35,13.39.31.72.42,1.56.9,2.25-.61-.63,1.19,2.83.58,2.03.31.41.4.78.41,1.29.01.41.74.85.23,1.43-.07.08.29.14.3.22.02.15.03.35.08.57l.41,1.75c.35,1.53.69,2.91.7,4.3,0,.38.29.77.38,1.09.22.86-.28,1.24.25,2.07-.03-.04,0,.99-.13,1.15-.15.17.24.29.25.47l.04,2.4c.02.86.24,1.62.18,2.54-.13,1.91-.04,3.86-.02,5.78,0,.66.23,1.17-.12,1.83s.23,1.66-.07,2.5c-.13.36-.5-.06-.09,1.26-.27-.87-.4,3.15-.23,2.16-.02.14-.21.22-.29.37-.07.13.16.39.14.6-.01.15-.42.32-.37.46.22.55.19,1.24-.21,1.57-.09.07.23.47.06.56-.08.04-.16.05-.33.23.16.24.2.36.24.5.06.22-.08.39-.33.58-.07.07.22.26.15.4-.11.22-.27.28-.27.5,0,1.33-2.02,7.87-2.74,9.11.28-.03-.64,1.76-.59,1.63-1.85,5.23-7.22,12.39-7.08,12.07-.34.8-1.05,1.16-1.43,1.83s-4.48,4.81-5.4,5.6l-2.57,2.21c-2.83,2.44-7.88,5.26-11.3,6.63.02,0-1.99-.16-1.79.65Z"/>
    <g>
      <path class="cls-15" d="M121.33,167.02c-3.19,5.21-4.42,11.42-3.79,17.48-.68-.1-1.38.01-2.07.01.1-.06,0-.22-.1-.35l-12.19.08c-.33,0-.88.15-1-.12-.07-.16-.03-.56,0-.75l3.11-19.72,15.77-.1c.39,0,.72-.2.96-.26.36.23.74.32,1.08.8-.8.87-1.2,1.96-1.78,2.91Z"/>
      <path class="cls-14" d="M116.21,138.94c-.79,1.62-1.2,3.37-1.9,5.12-2.43-2.36-5.51,1.96-7.08,3.61,2.24-.2,4.24.07,6.3.5-.08,1.11-.15,1.96-.07,2.84-1.93.01-3.9.89-5.91,1.61,1.36.22,2.43-.67,3.78-.83.81-.09,1.55-.27,2.4-.34.59.67-4.38,1.06-4.47,1.63l-.04.24-5.28,2.02c-.84.32-1.76.28-2.45-.19-.6-.41-.99-1.2-.98-2.06l.03-11.63c0-1.52,1.14-2.57,2.57-2.56l13.1.03Z"/>
      <g>
        <path class="cls-19" d="M143.33,197.26c-.04.29.37.13.51.22.51.29.82.88,1.57.98.13-.82-.08-1.79.63-2.44.18.87-.32,1.82.03,2.53.51.3,1.79.51,2.21-.07.09.01.11.07.15.09.07.03.19.01.17-.09,1.5.54,3.15-.53,4.13-2.04,2.44-3.74,3.81-7.96,4.68-12.21.17.1.38.03.43-.14.04-.12-.09-.36,0-.4.47-.23.53-1.13.33-1.56.26-.08.39-.38.38-.55,0-.1-.18-.26-.1-.34.21-.11.28-.27.3-.47.02-.14-.16-.31-.19-.4.28-.08.29-.24.57-.46-.63,5.33-2.7,12.7-6.32,17.09-.97,1.17,3.27.8,4.71.35,1.02-.32,1.68-1.13,2.57-1.47,1.05-.19,2.18.22,3.33-.13.84-.26,1.58-1.68,1.18-2.55-.45-.95-1.26-1.59-1.22-2.58.78-2.36,1.02-4.91,1.29-7.58l12.8,1.08c2.03.17,3.83.92,5.3.64-.71.4,2.12.5,1.96.5.66.02,6.58,1.37,7.6,1.66l1.75.51c2.09.6,4.17,1.34,5.56,3.01.28.33.57.88.22,1.21l-1.41,1.33c-.26.24-3.8,1.81-4.41,1.95l-7.66,1.82c.05.57.59.54.51.9-.4.52-1.04.54-1.82.69-.82.17-2.4.94-3.27.75-.25-.05-.3.32-.56.3-.34-.27-.43-.11-.6.22-.87-.24-1.58.19-2.33.28-.85.11-1.7-.04-2.4.27.01,0-3.09.5-2.94.14.38.54-3.56.66-3.76.67-.33.01-.9.3-1.3,0-.18.53-2.6.15-2.98.39-.43.27-.86.01-1.28.09-.56.1-1.12.44-1.77.16-.21-.09-4.74.34-4.33.2-.88.3-1.73.12-2.7.17l-2.58.13c-.42.02-.93.39-1.55.13-.69-.28-1.56-.01-2.33,0l-7.02.06-14.59.15c-1.57.02-2.87-.29-4.5,0-.74.14-1.27-.12-1.96-.16-2.96-.18-5.85.1-8.78-.12l-2.01-.15c-.8-.06-1.59.03-2.54-.04l-3.09-.21c-.81-.06-1.56-.16-2.32-.16h-1.97c-.7,0-1.29.03-1.92-.28-.37-.18-3.44.08-4.52-.34-.8-.31-1.76.22-2.46-.2-.47-.29-.77.01-1.2-.08.43.09-6.39-.8-5.54-.76l-1.87-.1c-.28-.02-.35-.2-.62-.13-1.37-.71-1.78.34-2.21-.49,1.31.53-5.24-.86-3.34-.24-.18-.06-.26-.28-.43-.29-.71-.06-3.22-.44-3.59-.54-1.33-.34-11.97-2.97-12.44-3.5.26.3-6.14-1.97-5.19-3.84s4.2-2.82,5.92-3.32c.74-.21,3.25-.96,3.59-.94-.68-.03,6-1.2,6.18-1.22l1.57-.18c-.33.04,4.91-.87,4.46-.82l19.13-1.86c.86-.08,6.61-.56,6.65,0,.06.72-3.14.68-2.38,1.46.17.18,2.08.13,2.53.11.12-.21-.06-.76.26-.67-.03.19-.07.59,0,.75.12.27.67.12,1,.12l12.19-.08c.1.12.19.28.1.35h-12.11s-12.9-.02-12.9-.02c-.76,0-1.46.28-1.99.84-1.6,1.67-3.09,3.3-4.31,5.09-.84,1.22-1.09,2.85.03,4.31.57.75,1.37,1.15,2.39,1.15h35.29c1.05,1.43,2.7,2.99,4.36,2.6.08.03.14.09.21.11.09.02.12-.07.2-.11.54.55,1.58.27,2.22-.06.12-.06.33.1.42-.08.05-.1.07-.14.05-.26.29.29.62.07.93-.26,1.29-1.39.25-4.11-.28-5.97-1.25-4.38-2.33-8.75-2.67-13.36.48.78.41,1.66.59,2.59.8,4.08,1.88,8,2.91,12.09.36,1.42.58,2.73.71,4.11,1.82.81,3.64.6,5.42.29.93-.16,1.87.13,2.8-.14,1.49-.43,2.93.19,3.58-.16Z"/>
        <path class="cls-41" d="M194.01,194.92c-.04.4-.49.47-.84.67-3.05,1.82-1.99.73-3.63,1.52.66-.31-3.33,1.02-2.68.53.08-.36-.46-.33-.51-.9l7.66-1.82Z"/>
        <g>
          <path class="cls-32" d="M160.08,195.87c-.11.01-.13-.03-.04-.15,1.21-1.55,2.7-3.21,3.33-5.11-.05.99.77,1.63,1.22,2.58.41.86-.33,2.29-1.18,2.55-1.14.35-2.28-.06-3.33.13Z"/>
          <path class="cls-48" d="M118.97,190.44c.89,1.84,1.69,3.79,2.91,5.44h-35.29c-1.01,0-1.82-.4-2.39-1.15-1.12-1.46-.87-3.08-.03-4.31.37.06.74.13,1.24.13l21.05-.03c-.17-.36-.24-.5-.03-.48.37.3.81.49,1.4.48l11.14-.08Z"/>
          <path class="cls-39" d="M115.47,184.52c.69,0,1.38-.11,2.07-.01.11,1.04.34,2.18.64,3.17-.03.07,0,.3-.08.32h-10.52c-.53,0-1.01.28-1.24.68-.25.44-.12.93.08,1.37-.22-.01-.14.12.03.48l-21.05.03c-.5,0-.87-.07-1.24-.13,1.22-1.79,2.71-3.43,4.31-5.09.53-.55,1.23-.84,1.99-.84h12.9s12.11.02,12.11.02Z"/>
          <path class="cls-22" d="M118.97,190.44l-11.14.08c-.6,0-1.03-.18-1.4-.48-.2-.43-.33-.93-.08-1.37.23-.4.71-.68,1.24-.68h10.52c.08-.01.04-.25.08-.32.25.84.4,1.95.79,2.76Z"/>
        </g>
      </g>
      <g>
        <g>
          <path class="cls-29" d="M165.2,135.58c-1.41-1.91-3.11-3.6-4.92-5.21-.24-.21-.44-.36-.52-.6,1.75-1.94,3.43-4.05,5.79-5.5.23-.14.51-.27.64-.16,1.09.85-.03,9.96-1,11.47Z"/>
          <g>
            <path class="cls-2" d="M120.87,131.32c.2-.18-1.01-1.42-1.44-1.99-.52,1.02.72,1.83,1.15,2.33.08.31-.32.48-.5.61-1.22-.75-1.72,2.21-3.62,1.16-1.69-1.88-2.42-7.96-1.79-10.11,1.49-.08,8.16,7.31,6.19,8Z"/>
            <path class="cls-30" d="M120.87,131.32c-.02.16-.17.27-.29.34-.42-.5-1.67-1.31-1.15-2.33.43.57,1.64,1.81,1.44,1.99Z"/>
          </g>
          <g>
            <path class="cls-7" d="M167.33,138.89c-.5-1.1-1.41-2.33-2.13-3.31.97-1.51,2.1-10.62,1-11.47-.13-.1-.41.02-.64.16-2.37,1.45-4.04,3.56-5.79,5.5-.18.03-.46-.1-.56.06-.14.21-.03.45.14.69,4.11,5.54,6.63,12.62,5.56,19.51.42-.02.67.17.37.34-1.73-.13-3.53.09-4.98.36l4.38.18c-.16.7-.37,1.19-.58,1.75-.55.02-1-.26-1.46.03.43.2.83.07,1.16.44-2.98,5.81-8.46,9.32-14.65,11.07-6.71,1.89-13.65,1.91-20.44.16-3.64-.94-6.92-2.36-9.96-4.56-.2-.15-.33-.24-.45-.17-.14.08-.2.22-.18.35-.84-.93-1.88-1.76-2.55-2.9-.32-.54-.51-1.21-1.06-1.65-1.47.54-2.75.99-3.9,1.66-.35.2-.82.37-1.21.42.17-.29.15-.31.56-.49,1.49-.64,2.86-1.4,4.48-1.94l-.8-2.59-4.43.85.04-.24c.09-.57,5.06-.96,4.47-1.63.76-.13,1.54.05,2.36-.15,1.7-.43,3.82.46,3.43-.33l-6.04.05c-.09-.88-.01-1.73.07-2.84-2.06-.43-4.06-.7-6.3-.5,1.58-1.65,4.65-5.97,7.08-3.61.69-1.76,1.11-3.51,1.9-5.12.43-.89.84-1.91,1.36-2.74.78-1.27,1.82-2.58,2.52-3.93.18-.13.58-.3.5-.61.12-.08.27-.19.29-.34,1.97-.69-4.71-8.08-6.19-8-.01-.23-.29-.28-.52-.25-.63.1-.59,1.14-.96,1.28-.14-1.02.2-2.35,1.26-2.6,1.75-.4,3.86,1.38,4.56.79-.1.18.09.44.33.56,2.26,1.07,4.24,2.44,6.18,4.05,10.07-7.26,22.23-6.74,31.68.83,1.32-1.78,8.53-7.41,10.08-6.56.27.15.56.51.69.96,1.43,4.73.8,11.89-.66,16.51Z"/>
            <g>
              <path class="cls-26" d="M113.72,151.46c-.85.07-1.59.25-2.4.34-1.34.16-2.42,1.05-3.78.83,2.01-.72,3.99-1.59,5.91-1.61l6.04-.05c.39.8-1.73-.09-3.43.33-.82.21-1.59.02-2.36.15Z"/>
              <g>
                <path class="cls-16" d="M159.73,149.94c.42,2-3.18,2.9-5.62,1.93-.6-.24-.92-.84-.94-1.33s.29-1.05.79-1.34c1.83-1.08,5.4-1.02,5.77.75Z"/>
                <path class="cls-33" d="M127.34,152.71c.26,1.96-3.35,2.69-5.59,1.78-.55-.23-.88-.78-.94-1.23-.27-1.92,3.33-2.57,5.48-1.78.6.22.98.73,1.05,1.23Z"/>
                <path class="cls-1" d="M156.66,146.68c-1.13.57-1.07-3.09-4.91-3.16s-3.73,3.62-4.93,3.02c-1.02-.51,1-4.56,4.99-4.5s6.01,4.06,4.85,4.65Z"/>
                <path class="cls-5" d="M131.49,147.32c-.92.35-1.29-3.03-4.84-3.03s-3.98,3.23-4.9,3.15c-1.6-.15.67-4.57,4.71-4.62s6.33,4.02,5.03,4.51Z"/>
                <path class="cls-49" d="M140,150.67c.07.87.27,1.79.88,2.32.68.59,1.53.93,2.42.74,1.23-.25,1.73-1.14,2-2.31.14-.17.68.11.65.29-.04.19.04.43-.04.68-.44,1.41-1.62,2.19-2.89,2.28-1.4.1-2.53-.59-3.44-1.84-.82,1.41-2.41,2.47-3.94,1.79-1.08-.48-1.81-2.74-1.01-2.75.59,0,.27,1.43,1.49,1.93,1.46.61,3.03-1.31,3.09-2.99.25-.29.56-.06.78-.15Z"/>
                <path class="cls-9" d="M140,150.67c-.22.09-.53-.14-.78.15-.87-.46-1.82-.88-2.49-1.78-1.24-1.65,4.84-2.1,5.53-1,.49.78-1.41,2.26-2.26,2.63Z"/>
                <path class="cls-3" d="M137.17,155.33c.92.53,1.41,1.22,2.36,1.17.73-.03,1.36-.55,2.03-1.16-.23,1.05-1.26,1.55-2.22,1.58-.91.03-2.04-.43-2.17-1.59Z"/>
                <path class="cls-13" d="M140.66,126.1c-.31,1.05-.34,2.1-.82,3.1.02-2.02.54-3.88,1.48-5.54.03.92-.42,1.64-.66,2.44Z"/>
                <path class="cls-28" d="M137.6,129.17c-.27-1.29-.23-4.81.7-5.5-.57,1.9-.63,3.64-.7,5.5Z"/>
                <path class="cls-20" d="M118.37,153.43c-.29.16-.57.45-1.01.25.25-.12.42-.42,1.01-.25Z"/>
              </g>
            </g>
          </g>
        </g>
        <g>
          <path class="cls-47" d="M157.41,184.22c-.87,4.25-2.24,8.47-4.68,12.21-.98,1.51-2.64,2.58-4.13,2.04.11-.65.41-1.34.17-2.08-.64.69-.46,1.46-.49,2.09-.41.58-1.7.37-2.21.07-.35-.7.14-1.65-.03-2.53-.71.65-.5,1.61-.63,2.44-.75-.1-1.06-.69-1.57-.98-.14-.08-.55.08-.51-.22.17-.03.32.03.56.04-.4-1.03-.11-1.93.06-2.93-.31-.09-.22.17-.24.26-.04.15-.19.06-.39.13.68,1.07-.36,1.36,0,2.49-.65.35-2.09-.27-3.58.16-.93.27-1.88-.03-2.8.14-1.78.32-3.6.52-5.42-.29-.12-1.38-.35-2.68-.71-4.11-1.04-4.09-2.12-8.01-2.91-12.09-.18-.92-.11-1.8-.59-2.59.34,4.61,1.42,8.97,2.67,13.36.53,1.86,1.57,4.58.28,5.97-.31.33-.64.55-.93.26-.11-.71.13-1.56-.62-2.05-.08.96.34,1.66.16,2.39-.64.33-1.68.61-2.22.06-.06-.7,0-1.49-.53-2.2-.3.79.04,1.51.12,2.2-1.66.39-3.31-1.17-4.36-2.6-1.22-1.65-2.02-3.6-2.91-5.44-.39-.81-.54-1.93-.79-2.76-.3-1-.53-2.13-.64-3.17-.63-6.07.6-12.28,3.79-17.48,10.09,7.19,22.74,9.83,35.04,8.4.55-.06,1.01.06,1.32.32,1.31,1.15.02,7.02-.28,8.48Z"/>
          <g>
            <path class="cls-45" d="M126.65,198.48c-.08.04-.11.13-.2.11-.08-.01-.14-.07-.21-.11-.08-.69-.42-1.41-.12-2.2.52.7.46,1.49.53,2.2Z"/>
            <path class="cls-18" d="M129.34,198.08c.02.12,0,.16-.05.26-.09.18-.3.02-.42.08.18-.73-.23-1.43-.16-2.39.76.49.51,1.35.62,2.05Z"/>
            <path class="cls-27" d="M148.6,198.47c.02.11-.1.12-.17.09-.04-.02-.06-.08-.15-.09.03-.63-.15-1.4.49-2.09.24.74-.06,1.43-.17,2.08Z"/>
            <path class="cls-51" d="M144.09,194.19c-.43-.45-.08-.9.06-1.42,1.19-4.37,2.19-8.66,3.83-12.76-.41,2.59-1.16,4.92-1.88,7.35l-2.01,6.83Z"/>
            <path class="cls-35" d="M143.33,197.26c-.37-1.13.67-1.43,0-2.49.2-.08.35.01.39-.13.02-.09-.07-.35.24-.26-.17,1-.46,1.9-.06,2.93-.25-.01-.39-.07-.56-.04Z"/>
          </g>
        </g>
      </g>
    </g>
    <g>
      <path class="cls-4" d="M121.68,75.7c-.21.4-.03.93-.17,1.33-.14.42-.77.55-.63,1.11.09.39.28.87.74.96-.49.44-.73,1.38-.52,1.97l-2.94.07-51.85-.03c-.82,0-1.28,1.02-1.28,1.65l.05,70.18c0,.94-.11,1.91,0,2.94.1.9.8,1.4,1.8,1.4l41.78.04c.04.61-.63.43-.83.9.58-.07,1.32-.29,1.57-.73.39-.05.86-.22,1.21-.42.14.33.54.23.92.2,1.36-.09,3.81.28,4.04-.21.67,1.13,1.71,1.97,2.55,2.9,1.15,1.26,2.44,2.4,3.91,3.34-.25.06-.57.25-.96.26l-15.77.1-41.54-.14c-2.41,0-4.04-1.74-4.04-4.17v-78.34c0-2.94,1.73-5.33,4.84-5.33l57.13.02Z"/>
      <path class="cls-50" d="M168.09,157.27l11.34.04c.84,0,1.79-.61,1.79-1.66l.02-72.87c0-.97-.71-1.67-1.66-1.67l-58.47-.03c-.21-.59.02-1.53.52-1.97.5-.27,1.29-.27,1.12-1.17-.09-.49-.61-1-1.22-.9.14-.4-.04-.93.17-1.33l60.82-.03c2.63,0,4.6,1.91,4.6,4.56l-.02,79.13c0,2.33-1.94,4.15-4.16,4.15l-20.56.02c2.43-1.77,4.16-3.92,5.72-6.26Z"/>
      <path class="cls-37" d="M118.16,81.15c.88-.43-1.45,2.69-1.36,2.58l-44.25.02c-1.22,0-2.07.32-2.75,1.05-.73.79-.77,1.73-.75,2.81s-.02,2.03.72,2.81c.56.59,1.34,1.08,2.37,1.08l15.4.03.04,4.66c-.07.03,0,.33-.08.46l-14.73.04c-2,0-3.39,1.59-3.39,3.6v10.53c0,2.22,1.56,3.8,3.74,3.79l18.47-.03c-.09.1-.01.16.04.25.1.15.18,0,.37.01l1.34.1-2.45,3.62-19.14.03c-1.74,0-2.9,1.34-2.9,2.95v6.06c-.01,1.58,1.05,2.6,2.48,2.9-.03.11.01.21.21.21l12.49.05-3.67,5.47c-.25.37-.44.68-.24,1.08l-9.74.02c-1.6,0-2.74.94-2.73,2.57l.03,12.64c0,.16.21.28.15.43-.8-.98-1.57.07-2.75-.03l-.05-70.18c0-.63.46-1.65,1.28-1.65l51.85.03Z"/>
      <path class="cls-24" d="M109.02,91.53c0,.07.1.23,0,.37l-3.52,4.9c-.56-.2-1.29-.12-1.98-.12l-15.42-.07.03-5.09h20.9Z"/>
      <g>
        <path class="cls-17" d="M121.1,81.08l58.47.03c.96,0,1.66.69,1.66,1.67l-.02,72.87c0,1.05-.95,1.66-1.79,1.66l-11.34-.04c.45-.71.52-1.86,1.07-2.48l3.07,1.31c-1.08-1.24-2.15-.95-2.97-1.72.31-1.1.59-2.15.74-3.38,1.63.23,3.06.52,4.6,1.04,1.02-.44-4.27-1.36-4.59-1.54.29-4.22-1.04-7.99-2.68-11.6,1.46-4.63,2.09-11.78.66-16.51-.13-.44-.42-.81-.69-.96-1.55-.85-8.76,4.78-10.08,6.56-9.46-7.57-21.62-8.09-31.68-.83-1.94-1.6-3.92-2.97-6.18-4.05-.24-.12-.43-.38-.33-.56.14-.89.22-1.86-.42-2.72-.46-.63-1.35-1.23-2.43-1.23l-25.29-.04,2.45-3.62-1.34-.1c-.19-.01-.27.14-.37-.01-.06-.09-.13-.15-.04-.25h34.15c2.15.01,3.68-1.75,3.68-3.75v-8.58c0-2.11-1.68-3.61-3.69-3.61l-18.1-.02c-.75-.76-1.29-1.51-2.12-1.81l3.52-4.9c.1-.14,0-.3,0-.37l20.63-.06c2.1,0,3.07-2.05,2.9-3.83-.11-1.11,0-2.02-.76-2.83-.59-.63-1.44-1.06-2.52-1.06h-12.47c-.09.1,2.24-3.03,1.36-2.59l2.94-.07Z"/>
        <path class="cls-38" d="M160.2,105.37c-.91,1.05-2.48.89-3.32-.06-.89-1.01-.69-2.6.53-3.44,1-.68,2.25-.37,2.94.46s.65,2.12-.15,3.03Z"/>
        <path class="cls-6" d="M174.77,85.59c.61-.25,1.19.23,1.39.73.22.55-.06,1.23-.56,1.37-.65.19-1.28.05-1.5-.57-.17-.48,0-1.27.67-1.54Z"/>
      </g>
      <path class="cls-11" d="M117.56,136.2c-.51.84-.92,1.85-1.36,2.74l-13.1-.03c-1.43,0-2.57,1.04-2.57,2.56l-.03,11.63c0,.85.38,1.65.98,2.06.69.47,1.61.51,2.45.19l5.28-2.02,4.43-.85.8,2.59c-1.63.54-3,1.3-4.48,1.94-.41.18-.4.2-.56.49-.25.44-.99.65-1.57.73.2-.47.87-.29.83-.9l-41.78-.04c-1,0-1.7-.51-1.8-1.4-.11-1.03,0-2,0-2.94,1.18.1,1.95-.95,2.75.03.53.66,1.19,1.01,2.16,1.01l25.51-.02c1.33,0,2.25-.85,2.25-2.19v-12.32c.01-1.07-.8-2.11-2.01-2.12l-15.62-.03c-.2-.39-.01-.7.24-1.08l3.67-5.47-12.49-.05c-.19,0-.24-.1-.21-.21l11.35-.02,31.01-.06c.56,1.83,1.99,5.71,3.88,5.76Z"/>
      <path class="cls-21" d="M115.57,157.07c-.23.5-2.69.13-4.04.21-.38.02-.78.13-.92-.2,1.16-.68,2.43-1.12,3.9-1.66.55.44.74,1.11,1.06,1.65Z"/>
      <path class="cls-10" d="M121.62,79.11c-.45-.09-.64-.57-.74-.96-.14-.57.49-.69.63-1.11.61-.1,1.13.41,1.22.9.17.91-.61.9-1.12,1.17Z"/>
      <g>
        <path class="cls-42" d="M88.09,96.61l15.42.07c.69,0,1.42-.08,1.98.12.84.3,1.38,1.05,2.12,1.81l18.1.02c2.01,0,3.68,1.5,3.69,3.61v8.58c0,2-1.52,3.76-3.67,3.76h-34.15s-18.47.02-18.47.02c-2.19,0-3.75-1.58-3.74-3.79v-10.53c0-2.01,1.4-3.59,3.39-3.6l14.73-.04c.08-.13.02-.43.08-.46,0,.09.25.32.22.45-.02.09.21-.03.31-.03Z"/>
        <path class="cls-23" d="M88.3,100.2l-15.59.02c-.29,0-.53-.06-.6-.27-.06-.16.04-.56.41-.56l15.74-.04c.21,0,.28.2.36.27.1.09,0,.58-.31.58Z"/>
        <path class="cls-46" d="M121.69,107.03c1.11-.3,2.14.49,2.4,1.53s-.46,2.11-1.46,2.37c-1.08.29-2.07-.4-2.4-1.28-.42-1.14.26-2.29,1.46-2.62Z"/>
      </g>
      <g>
        <path class="cls-40" d="M90.88,118.56l25.29.04c1.08,0,1.97.6,2.43,1.23.63.86.56,1.83.42,2.72-.7.59-2.81-1.19-4.56-.79-1.06.24-1.4,1.57-1.26,2.6.38-.15.33-1.19.96-1.28.23-.04.51.02.52.25-.63,2.16.1,8.24,1.79,10.11,1.9,1.05,2.4-1.91,3.62-1.16-.71,1.34-1.74,2.66-2.52,3.93-1.89-.05-3.32-3.94-3.88-5.76l-31.01.06-11.35.02c-1.43-.3-2.49-1.32-2.49-2.9v-6.06c.01-1.61,1.17-2.95,2.91-2.95l19.14-.03Z"/>
        <path class="cls-31" d="M101.2,125.04l-28.67-.03c-.38,0-.58-.17-.58-.44,0-.18.21-.42.58-.42l28.62-.02c.31,0,.39.18.46.27.11.13.04.64-.41.64Z"/>
        <path class="cls-25" d="M107.93,121.76l-10.88.03c-8.4.02-16.69.29-25.07-.14l25.28-.28,10.5-.03c.07,0,.17.24.16.41Z"/>
      </g>
      <g>
        <path class="cls-36" d="M116.8,83.73h12.47c1.07.01,1.93.45,2.52,1.07.76.82.65,1.72.76,2.83.18,1.78-.79,3.83-2.9,3.83l-20.63.06h-20.9s-.03,5.08-.03,5.08c-.1,0-.33.12-.31.03.03-.13-.22-.36-.22-.45l-.04-4.66-15.4-.03c-1.03,0-1.81-.49-2.37-1.08-.74-.78-.7-1.77-.72-2.81s.02-2.03.75-2.81c.68-.73,1.53-1.05,2.75-1.05l44.25-.02Z"/>
        <path class="cls-47" d="M111.36,87.77h-18.94c-.31.01-.54-.09-.62-.28-.07-.17.12-.57.46-.57h19.06c.28.15.41.25.43.38.02.11-.05.47-.39.47Z"/>
        <path class="cls-47" d="M125.75,87.75h-12.07c-.26,0-.4-.11-.49-.18-.13-.1-.16-.33-.07-.41.11-.1.34-.26.57-.26h11.94c.2,0,.33.17.46.23.15.07-.03.61-.34.61Z"/>
        <path class="cls-44" d="M76.2,87.9c-.22.17-.61.28-.92.15-.52-.22-.16-1.06-.38-1.39-.71.02-.53.91-.52,1.52-.29-.55-.3-1.59.41-1.75.55-.13.82-.47,1.31-.42s.87.23,1.09.82c.25.69.12,1.32-.3,1.78-.5.56-1.3.52-1.86.03.51.13,1.03.25,1.46-.06.35-.25.61-.85.47-1.42-.11-.42-.48-.89-1.09-.82-.47.05-.82.44-.8.78.04.51.32.79,1.13.78Z"/>
      </g>
      <g>
        <path class="cls-12" d="M80.12,137.31l15.62.03c1.21,0,2.03,1.04,2.03,2.12v12.32c-.01,1.34-.93,2.19-2.26,2.19l-25.51.02c-.97,0-1.63-.35-2.16-1.01.06-.15-.15-.27-.15-.43l-.03-12.64c0-1.63,1.13-2.57,2.73-2.57l9.74-.02Z"/>
        <g>
          <path class="cls-34" d="M93.03,147.74l-22.65.02c-.35,0-.56-.13-.62-.42-.04-.2.21-.47.62-.47h22.58c.27,0,.38.26.42.37.03.11.02.45-.35.5Z"/>
          <path class="cls-43" d="M85.05,150.85l-14.68.03c-.31,0-.53-.13-.61-.37-.06-.18.1-.55.45-.55h14.73c.22,0,.29.17.38.22.12.07.11.67-.28.67Z"/>
          <path class="cls-34" d="M94.24,142.46l-9.04.02c-.31,0-.4-.38-.37-.53.04-.2.25-.34.56-.34h8.77c.27-.01.45.21.5.33s-.05.53-.42.53Z"/>
          <path class="cls-34" d="M77.21,140.54h-7.05c-.25.01-.4-.19-.44-.35s.13-.46.44-.46h6.82c.21,0,.35.09.42.2.09.14.06.33-.19.61Z"/>
          <path class="cls-34" d="M84.1,140.52l-5.2.04c-.25,0-.51-.14-.54-.44-.02-.2.21-.41.59-.41h5.07c.25,0,.4.22.46.34.05.11-.03.46-.37.46Z"/>
        </g>
      </g>
    </g>
  </g>
</svg>